<svg xmlns="http://www.w3.org/2000/svg" xmlns:xlink="http://www.w3.org/1999/xlink" width="48" height="48"><linearGradient id="a"><stop offset="0" stop-color="#e0e0e0"/><stop offset="1" stop-color="#a4a4a4"/></linearGradient><linearGradient id="e" x1="1.901" x2="37.26" y1="24" y2="46.099" gradientTransform="matrix(-.90501 0 0 .90501 45.72 2.28)" gradientUnits="userSpaceOnUse"><stop offset="0" stop-color="#13ec19"/><stop offset="1" stop-color="#0da311"/></linearGradient><linearGradient id="c" x1="46.099" x2="28.42" y1="24" y2="38.364" gradientTransform="matrix(-.90501 0 0 .90501 45.72 2.28)" gradientUnits="userSpaceOnUse"><stop offset="0" stop-color="#11cd14"/><stop offset="1" stop-color="#0a850d"/></linearGradient><linearGradient id="b" x1="-35.649" x2="-1.901" y1="12.95" y2="24" gradientUnits="userSpaceOnUse"><stop offset="0" stop-color="#3dc4e9"/><stop offset="1" stop-color="#0c7cef"/></linearGradient><linearGradient id="f" x1="15.405" x2="-1.414" y1="15.405" y2="32.225" gradientTransform="matrix(-.90501 0 0 .90501 45.72 2.28)" gradientUnits="userSpaceOnUse"><stop offset="0" stop-color="#292c2f"/><stop offset="1" stop-color="#010800" stop-opacity="0"/></linearGradient><linearGradient id="g" x1="24" x2="24" y1="35.05" y2="46.099" gradientTransform="matrix(-.90501 0 0 .90501 45.72 2.28)" gradientUnits="userSpaceOnUse"><stop offset="0" stop-color="#3c4248"/><stop offset="1" stop-color="#2c3135"/></linearGradient><linearGradient id="h" x1="-32.84" x2="-15.16" y1="15.16" y2="32.84" gradientUnits="userSpaceOnUse"><stop offset="0" stop-color="#ddd"/><stop offset="1" stop-color="#a4a4a4"/></linearGradient><linearGradient xlink:href="#a" id="i" x1="-20.133" x2="-16.818" y1="30.63" y2="32.84" gradientUnits="userSpaceOnUse"/><linearGradient xlink:href="#a" id="j" x1="-24.552" x2="-21.238" y1="27.039" y2="29.249" gradientUnits="userSpaceOnUse"/><linearGradient xlink:href="#a" id="k" x1="-15.713" x2="-12.398" y1="26.762" y2="28.972" gradientUnits="userSpaceOnUse"/><linearGradient xlink:href="#a" id="l" x1="-20.133" x2="-16.818" y1="25.105" y2="27.315" gradientUnits="userSpaceOnUse"/><linearGradient xlink:href="#a" id="m" x1="-24.552" x2="-21.238" y1="22.343" y2="24.552" gradientUnits="userSpaceOnUse"/><linearGradient xlink:href="#a" id="n" x1="-15.713" x2="-12.398" y1="22.343" y2="24.552" gradientUnits="userSpaceOnUse"/><linearGradient xlink:href="#a" id="o" x1="-20.133" x2="-16.818" y1="19.58" y2="21.79" gradientUnits="userSpaceOnUse"/><linearGradient xlink:href="#a" id="p" x1="-24.552" x2="-21.238" y1="17.646" y2="19.856" gradientUnits="userSpaceOnUse"/><linearGradient xlink:href="#a" id="q" x1="-15.713" x2="-12.398" y1="17.923" y2="20.133" gradientUnits="userSpaceOnUse"/><linearGradient xlink:href="#a" id="r" x1="-20.133" x2="-16.818" y1="14.055" y2="16.265" gradientUnits="userSpaceOnUse"/><linearGradient xlink:href="#a" id="s" x1="-24.552" x2="-21.238" y1="12.95" y2="15.16" gradientUnits="userSpaceOnUse"/><linearGradient xlink:href="#a" id="t" x1="-24.552" x2="-21.238" y1="31.735" y2="33.945" gradientUnits="userSpaceOnUse"/><linearGradient xlink:href="#a" id="u" x1="-28.972" x2="-25.657" y1="30.63" y2="32.84" gradientUnits="userSpaceOnUse"/><linearGradient xlink:href="#a" id="v" x1="-28.972" x2="-25.657" y1="25.105" y2="27.315" gradientUnits="userSpaceOnUse"/><linearGradient xlink:href="#a" id="w" x1="-28.972" x2="-25.657" y1="19.58" y2="21.79" gradientUnits="userSpaceOnUse"/><linearGradient xlink:href="#a" id="x" x1="-28.972" x2="-25.657" y1="14.055" y2="16.265" gradientUnits="userSpaceOnUse"/><linearGradient xlink:href="#a" id="y" x1="-33.486" x2="-30.171" y1="26.762" y2="28.972" gradientUnits="userSpaceOnUse"/><linearGradient xlink:href="#a" id="z" x1="-33.486" x2="-30.171" y1="22.343" y2="24.552" gradientUnits="userSpaceOnUse"/><linearGradient xlink:href="#a" id="A" x1="-33.486" x2="-30.171" y1="17.923" y2="20.133" gradientUnits="userSpaceOnUse"/><linearGradient id="B" x1="9" x2="14" y1="9" y2="14" gradientUnits="userSpaceOnUse"><stop offset="0" stop-color="#fd8e3a"/><stop offset="1" stop-color="#fdec29"/></linearGradient><circle cx="-24" cy="24" r="22.099" fill="url(#b)" transform="matrix(.90501 0 0 .90501 45.72 2.28)"/><path fill="url(#c)" d="M4 24a20 20 0 0 0 20 20 20 20 0 0 0 14.078-5.807C18.02 25.704 7.654 24 4 24"/><path fill="url(#e)" d="M44 24c-7.991 0-29.95 8.462-31.992 15.975A20 20 0 0 0 24 44a20 20 0 0 0 20-20"/><path fill="url(#f)" d="M31.777 16.223 16.223 31.777 24 39.557V44a20 20 0 0 0 19.586-15.969z" opacity=".5"/><path fill="url(#g)" d="M22 34v2c.992.992 1 4.983 1 7.975.333.025.666.016 1 .025.334-.003.667-.006 1-.026 0-2.995.005-6.979 1-7.974v-2z"/><path fill="url(#h)" d="M-11.845 24A12.155 12.155 0 0 1-24 36.155 12.155 12.155 0 0 1-36.155 24 12.155 12.155 0 0 1-24 11.845 12.155 12.155 0 0 1-11.845 24" transform="matrix(.90501 0 0 .90501 45.72 2.28)"/><rect width="3.315" height="3.315" x="-20.685" y="30.63" fill="url(#i)" rx="11.602" transform="matrix(0 -.90501 -.90501 0 45.72 2.28)"/><rect width="3.315" height="3.315" x="-25.105" y="27.039" fill="url(#j)" rx="11.602" transform="matrix(0 -.90501 -.90501 0 45.72 2.28)"/><rect width="3.315" height="3.315" x="-16.265" y="26.762" fill="url(#k)" rx="11.602" transform="matrix(0 -.90501 -.90501 0 45.72 2.28)"/><rect width="3.315" height="3.315" x="-20.685" y="25.105" fill="url(#l)" rx="11.602" transform="matrix(0 -.90501 -.90501 0 45.72 2.28)"/><rect width="3.315" height="3.315" x="-25.105" y="22.343" fill="url(#m)" rx="11.602" transform="matrix(0 -.90501 -.90501 0 45.72 2.28)"/><rect width="3.315" height="3.315" x="-16.265" y="22.343" fill="url(#n)" rx="11.602" transform="matrix(0 -.90501 -.90501 0 45.72 2.28)"/><rect width="3.315" height="3.315" x="-20.685" y="19.58" fill="url(#o)" rx="11.602" transform="matrix(0 -.90501 -.90501 0 45.72 2.28)"/><rect width="3.315" height="3.315" x="-25.105" y="17.646" fill="url(#p)" rx="11.602" transform="matrix(0 -.90501 -.90501 0 45.72 2.28)"/><rect width="3.315" height="3.315" x="-16.265" y="17.923" fill="url(#q)" rx="11.602" transform="matrix(0 -.90501 -.90501 0 45.72 2.28)"/><rect width="3.315" height="3.315" x="-20.685" y="14.055" fill="url(#r)" rx="11.602" transform="matrix(0 -.90501 -.90501 0 45.72 2.28)"/><rect width="3.315" height="3.315" x="-25.105" y="12.95" fill="url(#s)" rx="11.602" transform="matrix(0 -.90501 -.90501 0 45.72 2.28)"/><rect width="3.315" height="3.315" x="-25.105" y="31.735" fill="url(#t)" rx="11.602" transform="matrix(0 -.90501 -.90501 0 45.72 2.28)"/><rect width="3.315" height="3.315" x="-29.525" y="30.63" fill="url(#u)" rx="11.602" transform="matrix(0 -.90501 -.90501 0 45.72 2.28)"/><rect width="3.315" height="3.315" x="-29.525" y="25.105" fill="url(#v)" rx="11.602" transform="matrix(0 -.90501 -.90501 0 45.72 2.28)"/><rect width="3.315" height="3.315" x="-29.525" y="19.58" fill="url(#w)" rx="11.602" transform="matrix(0 -.90501 -.90501 0 45.72 2.28)"/><rect width="3.315" height="3.315" x="-29.525" y="14.055" fill="url(#x)" rx="11.602" transform="matrix(0 -.90501 -.90501 0 45.72 2.28)"/><rect width="3.315" height="3.315" x="-34.039" y="26.762" fill="url(#y)" rx="11.602" transform="matrix(0 -.90501 -.90501 0 45.72 2.28)"/><rect width="3.315" height="3.315" x="-34.039" y="22.343" fill="url(#z)" rx="11.602" transform="matrix(0 -.90501 -.90501 0 45.72 2.28)"/><rect width="3.315" height="3.315" x="-34.039" y="17.923" fill="url(#A)" rx="11.602" transform="matrix(0 -.90501 -.90501 0 45.72 2.28)"/><path fill="url(#B)" d="M13.395 7.043c-2.562 1.61-4.725 3.745-6.327 6.312.854 1.011 2.109 1.643 3.432 1.645a4.5 4.5 0 0 0 4.5-4.5c0-1.33-.588-2.602-1.605-3.457"/><path fill="#292c2f" d="M43.99 23.707A20 19.5 0 0 1 24 43 20 19.5 0 0 1 4.01 23.787L4 24a20 20 0 0 0 20 20 20 20 0 0 0 20-20z" opacity=".3"/></svg>