<svg xmlns="http://www.w3.org/2000/svg" xmlns:xlink="http://www.w3.org/1999/xlink" id="svg2" width="64" height="64" version="1.1"><defs id="defs5455"><linearGradient id="linearGradient3"><stop id="stop2" offset="1" style="stop-color:#e5fbff;stop-opacity:1"/><stop id="stop3" offset="1" style="stop-color:#ababab;stop-opacity:.99539232"/></linearGradient><linearGradient id="linearGradient82546"><stop id="stop82542" offset="0" style="stop-color:#000;stop-opacity:.39814615"/><stop id="stop82544" offset="1" style="stop-color:#000;stop-opacity:1"/></linearGradient><linearGradient id="linearGradient39400"><stop id="stop39396" offset="0" style="stop-color:#000;stop-opacity:1"/><stop id="stop39398" offset="1" style="stop-color:#147cdc;stop-opacity:0"/></linearGradient><linearGradient id="linearGradient919"><stop id="stop915" offset="0" style="stop-color:#fff;stop-opacity:1"/><stop id="stop917" offset="1" style="stop-color:#fff;stop-opacity:0"/></linearGradient><linearGradient id="linearGradient4393"><stop id="stop4395" offset="0" style="stop-color:#000;stop-opacity:1"/><stop id="stop4397" offset="1" style="stop-color:#000;stop-opacity:0"/></linearGradient><linearGradient id="linearGradient4227"><stop id="stop4229" offset="0" style="stop-color:#f5f5f5;stop-opacity:1"/><stop id="stop4231" offset="1" style="stop-color:#f9f9f9;stop-opacity:1"/></linearGradient><linearGradient id="linearGradient4274"><stop id="stop4276" offset="0" style="stop-color:#fff;stop-opacity:1"/><stop id="stop4278" offset="1" style="stop-color:#fff;stop-opacity:.48760331"/></linearGradient><linearGradient xlink:href="#linearGradient919" id="linearGradient921" x1="339.668" x2="357.403" y1="472.302" y2="502.195" gradientTransform="translate(-317.668 -444.302)" gradientUnits="userSpaceOnUse"/><linearGradient xlink:href="#linearGradient39400" id="linearGradient39402" x1="376.818" x2="337.818" y1="549.95" y2="519.95" gradientTransform="translate(-315.818 -491.95)" gradientUnits="userSpaceOnUse"/><linearGradient xlink:href="#linearGradient4393" id="linearGradient49568" x1="443.571" x2="443.571" y1="510.798" y2="526.798" gradientTransform="translate(-353.793 -518.24)" gradientUnits="userSpaceOnUse"/><linearGradient xlink:href="#linearGradient4274" id="linearGradient76299" x1="390.571" x2="442.571" y1="498.298" y2="498.298" gradientTransform="translate(-384.571 -480.798)" gradientUnits="userSpaceOnUse"/><linearGradient xlink:href="#linearGradient4227" id="linearGradient76301" x1="396.571" x2="426.571" y1="498.798" y2="511.798" gradientTransform="translate(-384.571 -482.798)" gradientUnits="userSpaceOnUse"/><linearGradient xlink:href="#linearGradient82546" id="linearGradient82548" x1="357.489" x2="384.419" y1="494.852" y2="541.495" gradientTransform="translate(-326.571 -483.798)" gradientUnits="userSpaceOnUse"/><linearGradient xlink:href="#linearGradient3" id="linearGradient2" x1="410.571" x2="432.071" y1="512.798" y2="552.423" gradientTransform="translate(-385.897 -483.798)" gradientUnits="userSpaceOnUse"/><marker id="marker1511" markerHeight="14.026" markerWidth="16.165" orient="auto" refX="8.082" refY="7.013"><path id="path1455" d="m27.135 57.452-16.157.49 7.654-14.238Z" style="opacity:.507;fill:red" transform="rotate(1.546 1632.558 -370.734)"/></marker><style id="current-color-scheme" type="text/css">.ColorScheme-Highlight{color:#3593e6}</style></defs><path id="path76317" d="M4 6v27c0 .554.446 1 1 1h54c.554 0 1-.446 1-1V11.01l-.002-.01H60v-1H32l-4-4z" class="ColorScheme-Highlight" style="fill:currentColor"/><path id="path76289" d="M4 6v27c0 .554.446 1 1 1h54c.554 0 1-.446 1-1V11.01l-.002-.01H60v-1H32l-4-4z" style="opacity:.35;fill:url(#linearGradient82548);fill-opacity:1"/><rect id="rect76291" width="52" height="15" x="6" y="15" rx="1" ry="1" style="color:#000;clip-rule:nonzero;display:inline;overflow:visible;visibility:visible;isolation:auto;mix-blend-mode:normal;color-interpolation:sRGB;color-interpolation-filters:linearRGB;solid-color:#000;solid-opacity:1;fill:url(#linearGradient76301);fill-opacity:1;fill-rule:nonzero;stroke:none;stroke-width:1;stroke-linecap:butt;stroke-linejoin:miter;stroke-miterlimit:4;stroke-dasharray:none;stroke-dashoffset:0;stroke-opacity:1;marker:none;color-rendering:auto;image-rendering:auto;shape-rendering:auto;text-rendering:auto"/><path id="path76293" d="M3 28v1h20l3-5-4 4z" style="opacity:.3;fill:#fff;fill-opacity:1;fill-rule:evenodd"/><path id="path76295" d="m28 6 3 5h29v-1H32Z" style="opacity:.3;fill:#fff;fill-opacity:1;fill-rule:evenodd"/><path id="path76297" d="M7 15c-.554 0-1 .446-1 1v1c0-.554.446-1 1-1h50c.554 0 1 .446 1 1v-1c0-.554-.446-1-1-1z" style="color:#000;clip-rule:nonzero;display:inline;overflow:visible;visibility:visible;opacity:.85;isolation:auto;mix-blend-mode:normal;color-interpolation:sRGB;color-interpolation-filters:linearRGB;solid-color:#000;solid-opacity:1;fill:url(#linearGradient76299);fill-opacity:1;fill-rule:nonzero;stroke:none;stroke-width:1;stroke-linecap:butt;stroke-linejoin:miter;stroke-miterlimit:4;stroke-dasharray:none;stroke-dashoffset:0;stroke-opacity:1;marker:none;color-rendering:auto;image-rendering:auto;shape-rendering:auto;text-rendering:auto"/><path id="path889" d="m26 24-4 4H3v1h.002L3 29.012V57c0 .554.446 1 1 1h56c.554 0 1-.446 1-1V24z" class="ColorScheme-Highlight" style="fill:currentColor"/><path id="path893" d="m26 24-4 4H3v1h.002L3 29.012V57c0 .554.446 1 1 1h56c.554 0 1-.446 1-1V24z" style="opacity:.1;fill:url(#linearGradient921);fill-opacity:1"/><path id="path35453" d="m26 24-4 4H3v1h.002L3 29.012V57c0 .554.446 1 1 1h56c.554 0 1-.446 1-1V24z" style="opacity:.3;fill:url(#linearGradient39402);fill-opacity:1"/><path id="path49671" d="M3 28v1h20l3-5-4 4z" style="opacity:.3;fill:#fff;fill-opacity:1;fill-rule:evenodd"/><path id="path1" d="M37.903 32.621c-2.82.019-6.311.819-10.557 3.123-9.704 5.267-12.34 14.618-19.424 22.223l33.176.02c.408-7.787 4.205-10.102 10.117-16.903 0 0 3.744-3.308 2.908-6.422-.884-3.297-7.735.705-8.5.215-1.58-1.014-4.095-2.28-7.72-2.256m15.44 3c-1.774 2.324-3.974 4.572-6.966 7.328-2.917 2.688-7.93 6.512-8.164 6.11-.063-.11 5.143-4.09 7.658-6.413a463 463 0 0 0 7.471-7.025m-21.481 11.66c.76 0 1.375.756 1.375 1.688s-.616 1.687-1.375 1.687c-.76 0-1.375-.755-1.375-1.687s.615-1.688 1.375-1.688" style="font-variation-settings:normal;display:inline;vector-effect:none;fill:#fff;fill-opacity:.40000001;stroke-width:1;stroke-linecap:butt;stroke-linejoin:miter;stroke-miterlimit:4;stroke-dasharray:none;stroke-dashoffset:0;stroke-opacity:1;-inkscape-stroke:none;stop-color:#000"/><path id="path49673" d="M4 58c-.554 0-1-.446-1-1v-1c0 .554.446 1 1 1h56c.554 0 1-.446 1-1v1c0 .554-.446 1-1 1z" style="color:#000;clip-rule:nonzero;display:inline;overflow:visible;visibility:visible;opacity:.3;isolation:auto;mix-blend-mode:normal;color-interpolation:sRGB;color-interpolation-filters:linearRGB;solid-color:#000;solid-opacity:1;fill:#000;fill-opacity:1;fill-rule:nonzero;stroke:none;stroke-width:1;stroke-linecap:butt;stroke-linejoin:miter;stroke-miterlimit:4;stroke-dasharray:none;stroke-dashoffset:0;stroke-opacity:1;marker:none;color-rendering:auto;image-rendering:auto;shape-rendering:auto;text-rendering:auto"/></svg>