<svg xmlns="http://www.w3.org/2000/svg" width="48" height="48"><defs><linearGradient id="a" x2="0" y1="542.69" y2="503.8" gradientUnits="userSpaceOnUse"><stop stop-color="#c6cdd1"/><stop offset="1" stop-color="#e0e5e7"/></linearGradient><linearGradient id="e" x2="0" y1="44" y2="4" gradientTransform="matrix(.99794 0 0 1.0073 -383.81 -503.28)" gradientUnits="userSpaceOnUse"><stop stop-color="#cea476"/><stop offset="1" stop-color="#dab58b"/></linearGradient><linearGradient id="b" x2="0" y1="42" y2="6" gradientUnits="userSpaceOnUse"><stop stop-color="#c61423"/><stop offset="1" stop-color="#dc2b41"/></linearGradient><linearGradient id="d" x1="399.57" x2="424.57" y1="503.8" y2="528.8" gradientTransform="translate(-384.57 -499.8)" gradientUnits="userSpaceOnUse"><stop stop-color="#292c2f"/><stop offset="1" stop-opacity="0"/></linearGradient></defs><path fill="url(#a)" d="M408.57 503.8c-11.08 0-20 8.92-20 20s8.92 20 20 20 20-8.92 20-20-8.92-20-20-20m0 11.11a8.87 8.87 0 0 1 8.889 8.889 8.87 8.87 0 0 1-8.889 8.889 8.87 8.87 0 0 1-8.889-8.889 8.87 8.87 0 0 1 8.889-8.889" transform="translate(-384.57 -499.8)"/><path fill="url(#b)" fill-rule="evenodd" d="M15.223 6.04a19.95 19.95 0 0 0-9.865 10.738l9.898 5.656a8.86 8.86 0 0 1 5.73-6.789zm17.555 0-5.764 9.605a8.85 8.85 0 0 1 5.73 6.789l9.898-5.656A19.94 19.94 0 0 0 32.777 6.04M15.256 25.571l-9.898 5.656a19.94 19.94 0 0 0 9.865 10.738l5.764-9.605a8.85 8.85 0 0 1-5.73-6.789m17.488 0a8.86 8.86 0 0 1-5.73 6.789l5.764 9.605a19.95 19.95 0 0 0 9.865-10.738z"/><path fill="#99a1a7" d="M4.01 23.5c-.004.167-.012.332-.012.5 0 11.08 8.92 20 20 20s20-8.92 20-20c0-.168-.008-.333-.012-.5A19.954 19.954 0 0 1 23.998 43 19.95 19.95 0 0 1 4.01 23.5"/><path fill="url(#d)" fill-rule="evenodd" d="m11 10-.805 3L8 17l-1 3-1 4 1 4 3 9H9l2.975 2.975a19.92 19.92 0 0 0 12.03 4.03c6.05 0 11.446-2.672 15.11-6.893l-7.902-7.902a8.86 8.86 0 0 1-7.205 3.684 8.87 8.87 0 0 1-8.889-8.889 8.86 8.86 0 0 1 3.684-7.205l-6.795-6.795z" opacity=".2"/><path fill="url(#e)" d="M10.5 11c-.277 0-.5.223-.5.5 0 .174.093.319.227.408A20.14 20.14 0 0 0 5.963 24.32c0 4.567 1.53 8.737 4.053 12.11-.004.025-.016.048-.016.074a.499.499 0 1 0 1 0c0-.032-.012-.061-.018-.092h.16a.9.9 0 0 0-.189-.342 19.18 19.18 0 0 1-3.992-11.746q.001-.833.07-1.646a19.17 19.17 0 0 1 3.922-10.1c.339-.342.388-1.35 0-1.576-.039.045-.073.094-.111.139a.5.5 0 0 0-.342-.139m26.473 0c-.388.226-.339 1.234 0 1.576a19.16 19.16 0 0 1 3.922 10.1q.07.814.07 1.646c0 4.439-1.497 8.506-3.992 11.746a.9.9 0 0 0-.189.342h.115l.104.105a.495.495 0 0 0 .48.482l.004.004.002-.002.012.002c.277 0 .5-.223.5-.5 0-.054-.016-.104-.031-.152 2.488-3.355 3.994-7.496 3.994-12.03 0-4.686-1.596-8.966-4.238-12.379a.49.49 0 0 0 .275-.441c0-.277-.223-.5-.5-.5a.49.49 0 0 0-.379.186c-.051-.06-.096-.126-.148-.186"/><path fill="#7e1722" d="M10.5 10c-.831 0-1.5.669-1.5 1.5s.669 1.5 1.5 1.5 1.5-.669 1.5-1.5-.669-1.5-1.5-1.5m27 0c-.831 0-1.5.669-1.5 1.5s.669 1.5 1.5 1.5 1.5-.669 1.5-1.5-.669-1.5-1.5-1.5m-27 1a.499.499 0 1 1 0 1 .499.499 0 1 1 0-1m27 0a.499.499 0 1 1 0 1 .499.499 0 1 1 0-1m-27 24c-.831 0-1.5.669-1.5 1.5s.669 1.5 1.5 1.5 1.5-.669 1.5-1.5-.669-1.5-1.5-1.5m27 0c-.831 0-1.5.669-1.5 1.5s.669 1.5 1.5 1.5 1.5-.669 1.5-1.5-.669-1.5-1.5-1.5m-27 1a.499.499 0 1 1 0 1 .499.499 0 1 1 0-1m27 0a.499.499 0 1 1 0 1 .499.499 0 1 1 0-1"/></svg>