<svg xmlns="http://www.w3.org/2000/svg" viewBox="0 0 64 64"><linearGradient id="a" x1="41" x2="23" y1="58" y2="6" gradientUnits="userSpaceOnUse"><stop offset="0" stop-color="#848f9a"/><stop offset=".333" stop-color="#bdc2c7"/><stop offset="1" stop-color="#f6f6f6"/></linearGradient><linearGradient id="f" x1="-55" x2="-55" y1="12" y2="22" gradientTransform="matrix(-1 0 0 1 -25 0)" gradientUnits="userSpaceOnUse"><stop offset="0" stop-color="#54b5e8"/><stop offset=".333" stop-color="#8fd9ff"/><stop offset="1" stop-color="#369acf"/></linearGradient><linearGradient id="c" x1="-60" x2="-54" y1="22" y2="12" gradientTransform="matrix(-1 0 0 1 -25 0)" gradientUnits="userSpaceOnUse"><stop offset="0" stop-color="#8e98a2"/><stop offset="1" stop-color="#6c7884"/></linearGradient><linearGradient id="b" x1="32" x2="32" y1="6" y2="28" gradientUnits="userSpaceOnUse"><stop offset="0" stop-color="#68737e"/><stop offset="1" stop-color="#7a8692"/></linearGradient><linearGradient id="e" x1="-55" x2="-55" y1="22" y2="12" gradientTransform="matrix(-1 0 0 1 -25 0)" gradientUnits="userSpaceOnUse"><stop offset="0" stop-color="#232629"/><stop offset=".333" stop-color="#373d43"/><stop offset=".667" stop-color="#565f68"/><stop offset="1" stop-color="#474e55"/></linearGradient><linearGradient id="g" x1="21.006" x2="21" y1="21.006" y2="58" gradientUnits="userSpaceOnUse"><stop offset="0" stop-color="#565f68"/><stop offset=".595" stop-color="#68737e"/><stop offset="1" stop-color="#424950"/></linearGradient><path fill="url(#a)" fill-rule="evenodd" d="M31 6.5s-.81.038-1 .05c-7.838.514-14 6.478-14 14.45 0 0 2 7.333 2 11s-1 7.318-1 11c0 8.31 5.69 14.5 14 14.5h2c8.31 0 14-6.19 14-14.5 0-3.682-1-7.333-1-11s2-7.318 2-11c0-7.972-6.17-13.826-14-14.45-.22-.017-1-.05-1-.05V12h-2z"/><path fill="#c9cdd1" d="M31 6s-.81.038-1 .05c-7.838.515-14 6.978-14 14.95 0 .201.014.402.02.604A14.943 14.943 0 0 1 30 7.05C30.19 7.038 31 7 31 7h2s.78.033 1 .05c7.699.614 13.779 6.771 13.98 14.555.006-.201.02-.403.02-.605 0-7.972-6.17-14.326-14-14.95-.22-.017-1-.05-1-.05z"/><path fill="url(#b)" d="M31 6v4l-2 2v10l1 1v4c0 1.108.892 2 2 2s2-.892 2-2v-4l1-1V12l-2-2V6z"/><path fill="#7a8692" fill-rule="evenodd" d="M16.02 42.38c-.006.207-.02.413-.02.62 0 8.31 6.69 15 15 15h2c8.31 0 15-6.69 15-15 0-.207-.014-.413-.02-.62A14.956 14.956 0 0 1 33 57h-2a14.956 14.956 0 0 1-14.98-14.62"/><path fill="url(#c)" d="M35 12v10l-2-2v-6zm-6 0 2 2v6l-2 2z"/><g fill-rule="evenodd"><rect width="2" height="3" x="31" y="24" fill="#2a2e32" rx="1"/><path fill="url(#e)" d="M32 12c.373 0 .702.064 1 .152v9.696c-.298.088-.627.152-1 .152s-.702-.064-1-.152v-9.696A3.5 3.5 0 0 1 32 12"/><path fill="url(#f)" d="M33 12.152c.588.174 1 1.48 1 1.848v6c0 .368-.412 1.674-1 1.848zm-2 0v9.696c-.588-.174-1-1.48-1-1.848v-6c0-.368.412-1.674 1-1.848"/><path fill="url(#g)" d="M16 21.006c.001 3.68 1 7.314 1 10.994s-.999 7.314-1 10.994V43a14.956 14.956 0 0 0 13.77 14.938A11.97 11.97 0 0 1 19 46V34c0-3.384-1.123-10.49-3-12.994m32 0c-1.877 2.504-3 9.61-3 12.994v12a11.97 11.97 0 0 1-10.77 11.938A14.956 14.956 0 0 0 48 43v-.006c-.001-3.68-1-7.314-1-10.994s.999-7.314 1-10.994"/></g></svg>