<svg xmlns="http://www.w3.org/2000/svg" xmlns:xlink="http://www.w3.org/1999/xlink" width="48" height="48"><defs><linearGradient id="d"><stop/><stop offset="1" style="stop-opacity:0"/></linearGradient><linearGradient id="c"><stop style="stop-color:#3daefd"/><stop offset="1" style="stop-color:#24a058"/></linearGradient><linearGradient id="b"><stop style="stop-color:#2c3e50"/><stop offset="1" style="stop-color:#0d352d"/></linearGradient><linearGradient id="a"><stop style="stop-color:#c6cdd1"/><stop offset="1" style="stop-color:#e0e5e7"/></linearGradient><linearGradient xlink:href="#a" id="g" x2="0" y1="543.798" y2="503.798" gradientTransform="translate(-817.143)" gradientUnits="userSpaceOnUse"/><linearGradient xlink:href="#b" id="h" x1="-398.634" x2="-416.571" y1="509.548" y2="539.173" gradientUnits="userSpaceOnUse"/><linearGradient xlink:href="#c" id="i" x1="9.268" x2="35.667" y1="12.42" y2="38.819" gradientUnits="userSpaceOnUse"/><linearGradient xlink:href="#a" id="e" x2="0" y1="500.798" y2="503.798" gradientUnits="userSpaceOnUse"/><linearGradient xlink:href="#a" id="f" x1="411.571" x2="405.571" gradientUnits="userSpaceOnUse"/><linearGradient xlink:href="#d" id="j" x1="10" x2="22" y1="10" y2="22" gradientUnits="userSpaceOnUse"/></defs><g transform="translate(-384.571 -499.798)"><g transform="rotate(-45 408.571 523.798)"><path d="M407.57 501.8h2v4h-2z" style="fill:#31363b;stroke-linecap:round;stroke-linejoin:round;stroke-width:2"/><rect width="6" height="2" x="405.57" y="500.8" rx="1" style="fill:url(#e);stroke-linecap:round;stroke-linejoin:round;stroke-width:2"/></g><g transform="rotate(45 408.571 523.798)"><path d="M407.57 501.8h2v4h-2z" style="fill:#31363b;stroke-linecap:round;stroke-linejoin:round;stroke-width:2"/><rect width="6" height="2" x="405.57" y="500.8" rx="1" style="fill:url(#f);stroke-linecap:round;stroke-linejoin:round;stroke-width:2"/></g><rect width="40" height="40" x="-428.57" y="503.8" rx="20" style="stroke-opacity:.550265;fill:url(#g);stroke-width:2.8" transform="scale(-1 1)"/><path d="M388.583 523.298c-.004.167-.012.332-.012.5 0 11.08 8.92 20 20 20s20-8.92 20-20c0-.168-.008-.333-.011-.5a19.95 19.95 0 0 1-19.989 19.5 19.95 19.95 0 0 1-19.988-19.5" style="stroke-opacity:.550265;fill:#99a1a7;stroke-width:2.8"/><rect width="34" height="34" x="-425.57" y="506.8" rx="17" style="stroke-opacity:.550265;fill:url(#h);stroke-width:2.8" transform="scale(-1 1)"/><path d="M24 8c-.508 0-1.006.038-1.5.09v3.015c.493-.06.99-.105 1.5-.105.509 0 1.007.036 1.5.092V8.074A16 16 0 0 0 24 8m2.67.238-.781 2.912c1.01.147 1.982.403 2.902.766l.78-2.906a16 16 0 0 0-2.901-.772m3.994 1.219-1.504 2.604c.93.4 1.793.914 2.594 1.51l1.51-2.618a16 16 0 0 0-2.6-1.496m-8.81.727a14 14 0 0 0-2.903.775l.258.959a13 13 0 0 1 2.904-.768zm-3.51 1.021a14 14 0 0 0-2.594 1.504l.502.87a13 13 0 0 1 2.598-1.499zm15.869.461-2.14 2.14a13 13 0 0 1 2.12 2.122l2.141-2.14a16 16 0 0 0-2.121-2.122m-18.986 1.44A14 14 0 0 0 13.1 15.22l.718.718a13 13 0 0 1 2.112-2.13zm21.82 1.63-2.617 1.51c.595.8 1.11 1.664 1.51 2.592l2.603-1.502a16 16 0 0 0-1.496-2.6M12.709 15.75a14 14 0 0 0-1.498 2.598l.86.498a13 13 0 0 1 1.51-2.594zm26.281 2.68-2.906.779c.363.92.62 1.892.766 2.902l2.912-.78a16 16 0 0 0-.772-2.901m-28.047.52a14 14 0 0 0-.767 2.9l.978.261a13 13 0 0 1 .772-2.9zM19.5 20a.499.499 0 1 0 0 1h1a.499.499 0 1 0 0-1zm8 0a.499.499 0 1 0 0 1h1a.499.499 0 1 0 0-1zm5 0a.499.499 0 1 0 0 1h1a.499.499 0 1 0 0-1zm-16 1c-.277 0-.5.223-.5.5v1a.499.499 0 1 0 1 0v-1c0-.277-.223-.5-.5-.5m5 0c-.277 0-.5.223-.5.5v1a.499.499 0 1 0 1 0v-1c0-.277-.223-.5-.5-.5m2.5 0a1 1 0 0 0-1 1 1 1 0 0 0 1 1 1 1 0 0 0 1-1 1 1 0 0 0-1-1m5.5 0c-.277 0-.5.223-.5.5v1a.499.499 0 1 0 1 0v-1c0-.277-.223-.5-.5-.5m5 0c-.277 0-.5.223-.5.5v1a.499.499 0 1 0 1 0v-1c0-.277-.223-.5-.5-.5m-24.402 1.5A14 14 0 0 0 10 24q.002.752.086 1.5h1.018A13 13 0 0 1 11 24a13 13 0 0 1 .096-1.5zm26.81 0c.056.493.092.991.092 1.5s-.036 1.007-.092 1.5h3.018A16 16 0 0 0 40 24c0-.506-.029-1.006-.074-1.5zM19.5 23a.499.499 0 1 0 0 1h1a.499.499 0 1 0 0-1zm8 0a.499.499 0 1 0 0 1h1a.499.499 0 1 0 0-1zm-11 1c-.277 0-.5.223-.5.5v1a.499.499 0 1 0 1 0v-1c0-.277-.223-.5-.5-.5m5 0c-.277 0-.5.223-.5.5v1a.499.499 0 1 0 1 0v-1c0-.277-.223-.5-.5-.5m2.5 0a1 1 0 0 0-1 1 1 1 0 0 0 1 1 1 1 0 0 0 1-1 1 1 0 0 0-1-1m5.5 0c-.277 0-.5.223-.5.5v1a.499.499 0 1 0 1 0v-1c0-.277-.223-.5-.5-.5m5 0c-.277 0-.5.223-.5.5v1a.499.499 0 1 0 1 0v-1c0-.277-.223-.5-.5-.5m-23.35 1.889-.966.26a14 14 0 0 0 .775 2.9l.959-.258a13 13 0 0 1-.768-2.902m25.7 0a13 13 0 0 1-.766 2.902l2.906.78q.518-1.396.772-2.901zM19.5 26a.499.499 0 1 0 0 1h1a.499.499 0 1 0 0-1zm8 0a.499.499 0 1 0 0 1h1a.499.499 0 1 0 0-1zm-15.42 3.15-.875.506a14 14 0 0 0 1.504 2.594l.87-.502a13 13 0 0 1-1.499-2.598m23.86.01c-.4.93-.915 1.793-1.51 2.594l2.617 1.51a16 16 0 0 0 1.496-2.6zm-22.131 2.91-.704.703a14 14 0 0 0 2.116 2.127l.718-.718a13 13 0 0 1-2.13-2.112m20.384.002a13 13 0 0 1-2.12 2.121l2.14 2.141c.772-.64 1.482-1.35 2.121-2.121zm-17.945 2.356-1.508 2.61a16 16 0 0 0 2.592 1.51l1.512-2.616a13 13 0 0 1-2.596-1.504m15.506.002c-.8.595-1.664 1.11-2.592 1.51l1.502 2.603a16 16 0 0 0 2.6-1.496zM19.21 36.078l-.783 2.918c.928.345 1.896.609 2.898.777l.783-2.92a13 13 0 0 1-2.898-.775m9.58.006c-.92.363-1.894.62-2.904.766l.781 2.912a16 16 0 0 0 2.902-.772zm-6.291.82v3.022c.494.046.994.074 1.5.074s1.006-.029 1.5-.074v-3.018c-.493.056-.991.092-1.5.092s-1.007-.04-1.5-.096" style="stroke-opacity:.550265;fill:url(#i);stroke-width:2.8" transform="translate(384.571 499.798)"/><rect width="2" height="1" x="398.57" y="519.8" rx=".5" style="fill:#192629;stroke-linecap:round;stroke-linejoin:round;stroke-width:2"/><rect width="1" height="2" x="397.57" y="520.8" rx=".5" ry=".5" style="fill:#192629;stroke-linecap:round;stroke-linejoin:round;stroke-width:2"/><rect width="1" height="2" x="397.57" y="523.8" rx=".5" ry=".5" style="fill:#192629;stroke-linecap:round;stroke-linejoin:round;stroke-width:2"/><rect width="2" height="1" x="398.57" y="522.8" rx=".5" style="fill:#192629;stroke-linecap:round;stroke-linejoin:round;stroke-width:2"/><rect width="2" height="1" x="398.57" y="525.8" rx=".5" style="fill:#192629;stroke-linecap:round;stroke-linejoin:round;stroke-width:2"/><rect width="1" height="2" x="402.57" y="520.8" rx=".5" ry=".5" style="fill:#192629;stroke-linecap:round;stroke-linejoin:round;stroke-width:2"/><rect width="1" height="2" x="402.57" y="523.8" rx=".5" ry=".5" style="fill:#192629;stroke-linecap:round;stroke-linejoin:round;stroke-width:2"/><rect width="1" height="2" x="410.57" y="520.8" rx=".5" ry=".5" style="fill:#192629;stroke-linecap:round;stroke-linejoin:round;stroke-width:2"/><rect width="1" height="2" x="410.57" y="523.8" rx=".5" ry=".5" style="fill:#192629;stroke-linecap:round;stroke-linejoin:round;stroke-width:2"/><rect width="1" height="2" x="415.57" y="520.8" rx=".5" ry=".5" style="fill:#192629;stroke-linecap:round;stroke-linejoin:round;stroke-width:2"/><rect width="1" height="2" x="415.57" y="523.8" rx=".5" ry=".5" style="fill:#192629;stroke-linecap:round;stroke-linejoin:round;stroke-width:2"/><rect width="2" height="1" x="416.57" y="522.8" rx=".5" style="fill:#192629;stroke-linecap:round;stroke-linejoin:round;stroke-width:2"/><rect width="2" height="1" x="416.57" y="525.8" rx=".5" style="fill:#192629;stroke-linecap:round;stroke-linejoin:round;stroke-width:2"/><path d="M12.143 7.9A20 20 0 0 0 7.9 12.143l22.463 22.464 4.244-4.244z" style="fill:url(#j);opacity:.2;stroke-linecap:round;stroke-linejoin:round;stroke-width:2" transform="translate(384.571 499.798)"/></g></svg>