<svg xmlns="http://www.w3.org/2000/svg" viewBox="0 0 48 48"><defs><linearGradient id="a" x2="0" y1="543.8" y2="503.8" gradientTransform="matrix(1.125 0 0 1 -433.64 -499.8)" gradientUnits="userSpaceOnUse"><stop offset="0" stop-color="#c6cdd1"/><stop offset="1" stop-color="#e0e5e7"/></linearGradient><linearGradient id="b" x1="398.57" x2="416.57" y1="513.8" y2="531.8" gradientTransform="translate(-392.166 -502.8)" gradientUnits="userSpaceOnUse"><stop offset="0" stop-color="#292c2f"/><stop offset="1" stop-opacity="0"/></linearGradient></defs><path fill="url(#a)" d="M6 6h33l3 3v33H6z"/><path fill="#737b81" d="M6 42v-1h36v1z"/><path fill="#4c5154" d="M38 40v-4h3v4z"/><path fill="url(#b)" fill-rule="evenodd" d="M36 6 12 18l23 24h7V12z" opacity=".2"/><path fill="#4c5154" d="M12 6h24v12H12z"/><path fill="#eef1f2" d="M16 6v12h20V6zm13 2h4v8h-4z"/><path fill="#abb9be" d="M12 39V26h20v13z"/><g stroke-width=".1"><path fill="#fdbc4a" d="M13 27h18v11H13z"/><g fill="#fff"><path d="M15 33h8v1h-8zM15 35h6v1h-6zM15 31h11v1H15z"/></g></g><path fill="#eef1f2" d="M39 37h1v2h-1z"/></svg>