<svg xmlns="http://www.w3.org/2000/svg" xmlns:xlink="http://www.w3.org/1999/xlink" width="48" height="48"><defs><linearGradient id="c" x2="0" y1="536.8" y2="503.8" gradientUnits="userSpaceOnUse"><stop stop-color="#2a2c2f"/><stop offset="1" stop-color="#424649"/></linearGradient><linearGradient id="b" x2="0" y1="547.8" y2="536.8" gradientTransform="matrix(1 0 0 .54545 0 244)" gradientUnits="userSpaceOnUse"><stop stop-color="#c6cdd1"/><stop offset="1" stop-color="#e0e5e7"/></linearGradient><linearGradient id="d" x1="42.799" x2="11.999" y1="5.342" y2="31.357" gradientUnits="userSpaceOnUse"><stop stop-color="#4ce0c6"/><stop offset="1" stop-color="#3b85b5"/></linearGradient><linearGradient id="f" x1="29.855" x2="54.32" y1="22.346" y2="28.506" gradientUnits="userSpaceOnUse"><stop stop-color="#cc4a5e"/><stop offset="1" stop-color="#aa478a"/></linearGradient><linearGradient id="a" x1="24.392" x2="20.643" y1="41.22" y2="25.343" gradientUnits="userSpaceOnUse"><stop stop-color="#334545"/><stop offset="1" stop-color="#536161"/></linearGradient><linearGradient xlink:href="#a" id="g" x1="431.57" x2="439.57" y1="568.8" y2="562.8" gradientTransform="matrix(-1 0 0 1 839.14 -40)" gradientUnits="userSpaceOnUse"/><linearGradient xlink:href="#a" id="h" x1="56.03" x2="40.647" y1="40.899" y2="32.475" gradientUnits="userSpaceOnUse"/><linearGradient xlink:href="#a" id="i" x1="60.895" x2="53.41" y1="32.15" y2="27.06" gradientUnits="userSpaceOnUse"/><linearGradient xlink:href="#a" id="j" x1="33.32" x2="24.78" y1="36.527" y2="31.348" gradientUnits="userSpaceOnUse"/><linearGradient xlink:href="#a" id="k" x1="34" x2="40.25" y1="36.765" y2="49.571" gradientUnits="userSpaceOnUse"/></defs><g stroke-opacity=".55" stroke-width="2.8"><path fill="url(#b)" d="M402.57 536.8v6h12v-6z" transform="translate(-384.57 -499.8)"/><path fill="url(#c)" d="M384.57 503.8h48v36h-48z" transform="translate(-384.57 -499.8)"/></g><path fill="url(#d)" d="M12 6v30h44V6z" transform="matrix(1 0 0 1 -9.995 -.003)"/><g stroke-width="2"><path fill="url(#f)" d="M56 6 25.72 23.482 47.402 36h8.6z" transform="matrix(1 0 0 1 -9.995 -.003)"/><path fill="url(#a)" d="M25.75 23.416 12 31.355V36h35.605z" transform="matrix(1 0 0 1 -9.995 -.003)"/><path fill="url(#g)" d="m407.83 527.57-8.259-4.768v9.536z" transform="translate(-350.52 -455.817)scale(.91667)"/><path fill="url(#h)" d="M40.891 32.16v3.844h6.656z" transform="matrix(1 0 0 1 -9.995 -.003)"/><path fill="url(#i)" d="M53.32 27.787V36h.916l6.654-3.842z" transform="matrix(1 0 0 1 -29.997 -.003)"/><path fill="url(#j)" d="M25.75 32.16v3.842h6.654z" transform="matrix(1 0 0 1 -9.995 -.003)"/><path fill="url(#k)" d="m40.891 32.16-6.656 3.844h6.656z" transform="matrix(1 0 0 1 -9.995 -.003)"/><path fill="#aa478a" d="m15.726 23.482 30.278-17.48v8.54z"/></g><path fill="#99a1a7" d="M13 42h22v2H13z"/><path fill="#fff" d="M3 7v5h1V8h4V7zm37 0v1h4v4h1V7zm-18 7v3h-2v11h13V17h-2v-3zm1 1h7v2h-7zm-8 2v11h4V17zm11.5 1c2.493 0 4.5 2.01 4.5 4.5 0 2.493-2.01 4.5-4.5 4.5-2.493 0-4.5-2.01-4.5-4.5 0-2.493 2.01-4.5 4.5-4.5m0 1a3.49 3.49 0 0 0-3.5 3.5c0 1.939 1.561 3.5 3.5 3.5s3.5-1.561 3.5-3.5-1.561-3.5-3.5-3.5M3 30v5h5v-1H4v-4zm41 0v4h-4v1h5v-5z"/></svg>