<svg width="410" height="512" viewBox="0 0 410 512" fill="none" xmlns="http://www.w3.org/2000/svg">
<path d="M57.9746 0L0.387939 255.941H115.561L166.512 0H57.9746Z" fill="#F2F1ED"/>
<path d="M294.72 0L115.561 255.941H230.735L409.893 0H294.72Z" fill="#F2F1ED"/>
<path d="M115.561 255.941L166.513 0L189.737 150.01L115.561 255.941Z" fill="black" fill-opacity="0.2"/>
<path d="M409.893 0L230.735 255.941H344.486L409.893 0Z" fill="black" fill-opacity="0.2"/>
<path d="M115.561 255.941H0.387939L57.9746 512H166.512L115.561 255.941Z" fill="#CBCAC5"/>
<path d="M230.735 255.941H115.561L294.72 512H409.893L230.735 255.941Z" fill="#CBCAC5"/>
<path d="M115.561 255.941L166.513 511.882L189.737 361.872L115.561 255.941Z" fill="black" fill-opacity="0.2"/>
<path d="M409.893 511.882L230.735 255.941H344.486L409.893 511.882Z" fill="black" fill-opacity="0.2"/>
</svg>

