<svg width="550" height="400" viewBox="0 0 550 400" fill="none" xmlns="http://www.w3.org/2000/svg">
<rect x="150.5" y="0.5" width="99" height="99" fill="#D1D5D9" stroke="#A8ABB0"/>
<path d="M208.181 63H189.533V58.428L195.797 52.092C197.093 50.724 198.101 49.632 198.821 48.816C199.565 48 200.081 47.304 200.369 46.728C200.657 46.152 200.801 45.552 200.801 44.928C200.801 44.16 200.549 43.608 200.045 43.272C199.565 42.936 198.989 42.768 198.317 42.768C197.501 42.768 196.685 42.996 195.869 43.452C195.053 43.908 194.117 44.592 193.061 45.504L189.245 41.04C190.013 40.344 190.829 39.684 191.693 39.06C192.581 38.436 193.613 37.932 194.789 37.548C195.965 37.14 197.405 36.936 199.109 36.936C200.861 36.936 202.373 37.248 203.645 37.872C204.917 38.472 205.901 39.3 206.597 40.356C207.317 41.412 207.677 42.612 207.677 43.956C207.677 45.444 207.401 46.776 206.849 47.952C206.321 49.104 205.505 50.268 204.401 51.444C203.321 52.596 201.965 53.916 200.333 55.404L198.461 57.096V57.276H208.181V63Z" fill="black"/>
<rect x="300.5" y="0.5" width="99" height="99" fill="#D1D5D9" stroke="#A8ABB0"/>
<path d="M357.317 42.876C357.317 44.1 357.053 45.156 356.525 46.044C355.997 46.908 355.301 47.628 354.437 48.204C353.597 48.756 352.661 49.176 351.629 49.464V49.572C353.693 49.812 355.277 50.436 356.381 51.444C357.509 52.428 358.073 53.832 358.073 55.656C358.073 57.048 357.689 58.332 356.921 59.508C356.177 60.684 355.013 61.62 353.429 62.316C351.869 63.012 349.841 63.36 347.345 63.36C345.689 63.36 344.273 63.24 343.097 63C341.921 62.736 340.781 62.388 339.677 61.956V56.196C340.805 56.772 341.957 57.204 343.133 57.492C344.309 57.756 345.377 57.888 346.337 57.888C348.041 57.888 349.193 57.648 349.793 57.168C350.417 56.688 350.729 56.04 350.729 55.224C350.729 54.648 350.573 54.156 350.261 53.748C349.973 53.316 349.433 52.992 348.641 52.776C347.873 52.56 346.745 52.452 345.257 52.452H343.673V47.232H345.293C347.261 47.232 348.629 46.98 349.397 46.476C350.189 45.972 350.585 45.324 350.585 44.532C350.585 43.836 350.321 43.332 349.793 43.02C349.265 42.684 348.569 42.516 347.705 42.516C346.937 42.516 346.205 42.624 345.509 42.84C344.837 43.056 344.249 43.296 343.745 43.56C343.241 43.8 342.857 44.004 342.593 44.172L339.713 39.528C340.769 38.808 341.981 38.196 343.349 37.692C344.741 37.188 346.553 36.936 348.785 36.936C351.425 36.936 353.501 37.464 355.013 38.52C356.549 39.576 357.317 41.028 357.317 42.876Z" fill="black"/>
<rect x="0.5" y="0.5" width="99" height="99" fill="#D1D5D9" stroke="#A8ABB0"/>
<path d="M55.0131 63H47.9571V50.292C47.9571 50.052 47.9571 49.62 47.9571 48.996C47.9571 48.372 47.9691 47.676 47.9931 46.908C48.0171 46.14 48.0411 45.456 48.0651 44.856C47.7531 45.216 47.4651 45.528 47.2011 45.792C46.9611 46.056 46.7091 46.296 46.4451 46.512L43.5291 48.924L39.9291 44.496L48.7491 37.296H55.0131V63Z" fill="black"/>
<path d="M98.5858 48.5858C97.8047 49.3668 97.8047 50.6332 98.5858 51.4142L111.314 64.1421C112.095 64.9232 113.361 64.9232 114.142 64.1421C114.923 63.3611 114.923 62.0948 114.142 61.3137L102.828 50L114.142 38.6863C114.923 37.9052 114.923 36.6389 114.142 35.8579C113.361 35.0768 112.095 35.0768 111.314 35.8579L98.5858 48.5858ZM151.414 51.4142C152.195 50.6332 152.195 49.3668 151.414 48.5858L138.686 35.8579C137.905 35.0768 136.639 35.0768 135.858 35.8579C135.077 36.6389 135.077 37.9052 135.858 38.6863L147.172 50L135.858 61.3137C135.077 62.0948 135.077 63.3611 135.858 64.1421C136.639 64.9232 137.905 64.9232 138.686 64.1421L151.414 51.4142ZM100 52H150V48H100V52Z" fill="black"/>
<path d="M248.586 48.5858C247.805 49.3668 247.805 50.6332 248.586 51.4142L261.314 64.1421C262.095 64.9232 263.361 64.9232 264.142 64.1421C264.923 63.3611 264.923 62.0948 264.142 61.3137L252.828 50L264.142 38.6863C264.923 37.9052 264.923 36.6389 264.142 35.8579C263.361 35.0768 262.095 35.0768 261.314 35.8579L248.586 48.5858ZM301.414 51.4142C302.195 50.6332 302.195 49.3668 301.414 48.5858L288.686 35.8579C287.905 35.0768 286.639 35.0768 285.858 35.8579C285.077 36.6389 285.077 37.9052 285.858 38.6863L297.172 50L285.858 61.3137C285.077 62.0948 285.077 63.3611 285.858 64.1421C286.639 64.9232 287.905 64.9232 288.686 64.1421L301.414 51.4142ZM250 52H300V48H250V52Z" fill="black"/>
<rect x="150.5" y="150.5" width="99" height="99" fill="#D1D5D9" stroke="#A8ABB0"/>
<path d="M199.107 187.296C202.827 187.296 205.479 187.848 207.063 188.952C208.647 190.056 209.439 191.64 209.439 193.704C209.439 194.832 209.235 195.792 208.827 196.584C208.419 197.352 207.903 197.964 207.279 198.42C206.679 198.876 206.055 199.188 205.407 199.356V199.536C206.103 199.704 206.799 199.992 207.495 200.4C208.191 200.808 208.767 201.42 209.223 202.236C209.703 203.028 209.943 204.108 209.943 205.476C209.943 207.804 209.067 209.64 207.315 210.984C205.563 212.328 203.175 213 200.151 213H190.143V187.296H199.107ZM199.179 197.16C200.331 197.16 201.135 196.92 201.591 196.44C202.071 195.96 202.311 195.384 202.311 194.712C202.311 193.272 201.219 192.552 199.035 192.552H197.091V197.16H199.179ZM197.091 202.236V207.636H199.539C200.739 207.636 201.579 207.384 202.059 206.88C202.539 206.352 202.779 205.692 202.779 204.9C202.779 204.204 202.539 203.592 202.059 203.064C201.579 202.512 200.691 202.236 199.395 202.236H197.091Z" fill="black"/>
<rect x="300.5" y="300.5" width="99" height="99" fill="#D1D5D9" stroke="#A8ABB0"/>
<path d="M347.761 363H334.369V359.04L337.573 357.816V342.444L334.369 341.256V337.296H347.761V341.256L344.557 342.444V357.816L347.761 359.04V363ZM363.616 363H350.224V359.04L353.428 357.816V342.444L350.224 341.256V337.296H363.616V341.256L360.412 342.444V357.816L363.616 359.04V363Z" fill="black"/>
<rect x="300.5" y="150.5" width="99" height="99" fill="#D1D5D9" stroke="#A8ABB0"/>
<path d="M351.531 192.624C349.899 192.624 348.615 193.296 347.679 194.64C346.743 195.984 346.275 197.856 346.275 200.256C346.275 202.68 346.743 204.528 347.679 205.8C348.615 207.048 350.031 207.672 351.927 207.672C353.055 207.672 354.147 207.516 355.203 207.204C356.283 206.892 357.363 206.508 358.443 206.052V211.92C357.315 212.424 356.151 212.784 354.951 213C353.775 213.24 352.515 213.36 351.171 213.36C348.387 213.36 346.107 212.808 344.331 211.704C342.555 210.6 341.247 209.064 340.407 207.096C339.567 205.104 339.147 202.812 339.147 200.22C339.147 197.628 339.627 195.336 340.587 193.344C341.547 191.352 342.951 189.792 344.799 188.664C346.671 187.512 348.939 186.936 351.603 186.936C352.851 186.936 354.159 187.08 355.527 187.368C356.895 187.656 358.239 188.112 359.559 188.736L357.435 194.208C356.499 193.752 355.551 193.38 354.591 193.092C353.631 192.78 352.611 192.624 351.531 192.624Z" fill="black"/>
<rect x="450.5" y="300.5" width="99" height="99" fill="#D1D5D9" stroke="#A8ABB0"/>
<path d="M489.833 363H476.441V359.04L479.645 357.816V342.444L476.441 341.256V337.296H489.833V341.256L486.629 342.444V357.816L489.833 359.04V363ZM505.688 363H492.296V359.04L495.5 357.816V342.444L492.296 341.256V337.296H505.688V341.256L502.484 342.444V357.816L505.688 359.04V363ZM521.544 363H508.152V359.04L511.356 357.816V342.444L508.152 341.256V337.296H521.544V341.256L518.34 342.444V357.816L521.544 359.04V363Z" fill="black"/>
<rect x="0.5" y="150.5" width="99" height="99" fill="#D1D5D9" stroke="#A8ABB0"/>
<path d="M54.9795 213L53.7195 208.176H45.3675L44.0715 213H36.4395L44.8275 187.188H54.0795L62.5755 213H54.9795ZM51.1635 198.276C51.0435 197.82 50.8755 197.172 50.6595 196.332C50.4435 195.468 50.2275 194.58 50.0115 193.668C49.7955 192.756 49.6275 192.012 49.5075 191.436C49.4115 192.012 49.2555 192.732 49.0395 193.596C48.8475 194.46 48.6435 195.312 48.4275 196.152C48.2355 196.992 48.0675 197.7 47.9235 198.276L46.8075 202.488H52.2795L51.1635 198.276Z" fill="black"/>
<rect x="150.5" y="300.5" width="99" height="99" fill="#D1D5D9" stroke="#A8ABB0"/>
<path d="M205.688 363H192.296V359.04L195.5 357.816V342.444L192.296 341.256V337.296H205.688V341.256L202.484 342.444V357.816L205.688 359.04V363Z" fill="black"/>
<path d="M198.586 151.414C199.367 152.195 200.633 152.195 201.414 151.414L214.142 138.686C214.923 137.905 214.923 136.639 214.142 135.858C213.361 135.077 212.095 135.077 211.314 135.858L200 147.172L188.686 135.858C187.905 135.077 186.639 135.077 185.858 135.858C185.077 136.639 185.077 137.905 185.858 138.686L198.586 151.414ZM50 122V120C48.8954 120 48 120.895 48 122H50ZM48.5858 151.414C49.3668 152.195 50.6332 152.195 51.4142 151.414L64.1421 138.686C64.9232 137.905 64.9232 136.639 64.1421 135.858C63.3611 135.077 62.0948 135.077 61.3137 135.858L50 147.172L38.6863 135.858C37.9052 135.077 36.6389 135.077 35.8579 135.858C35.0768 136.639 35.0768 137.905 35.8579 138.686L48.5858 151.414ZM350 122H352C352 120.895 351.105 120 350 120V122ZM348.586 151.414C349.367 152.195 350.633 152.195 351.414 151.414L364.142 138.686C364.923 137.905 364.923 136.639 364.142 135.858C363.361 135.077 362.095 135.077 361.314 135.858L350 147.172L338.686 135.858C337.905 135.077 336.639 135.077 335.858 135.858C335.077 136.639 335.077 137.905 335.858 138.686L348.586 151.414ZM198 100V122H202V100H198ZM198 122V150H202V122H198ZM200 120H50V124H200V120ZM48 122V150H52V122H48ZM200 124L350 124V120L200 120V124ZM352 150V122H348V150H352Z" fill="black"/>
<path d="M348.586 301.414C349.367 302.195 350.633 302.195 351.414 301.414L364.142 288.686C364.923 287.905 364.923 286.639 364.142 285.858C363.361 285.077 362.095 285.077 361.314 285.858L350 297.172L338.686 285.858C337.905 285.077 336.639 285.077 335.858 285.858C335.077 286.639 335.077 287.905 335.858 288.686L348.586 301.414ZM200 272V270C198.895 270 198 270.895 198 272H200ZM198.586 301.414C199.367 302.195 200.633 302.195 201.414 301.414L214.142 288.686C214.923 287.905 214.923 286.639 214.142 285.858C213.361 285.077 212.095 285.077 211.314 285.858L200 297.172L188.686 285.858C187.905 285.077 186.639 285.077 185.858 285.858C185.077 286.639 185.077 287.905 185.858 288.686L198.586 301.414ZM500 272H502C502 270.895 501.105 270 500 270V272ZM498.586 301.414C499.367 302.195 500.633 302.195 501.414 301.414L514.142 288.686C514.923 287.905 514.923 286.639 514.142 285.858C513.361 285.077 512.095 285.077 511.314 285.858L500 297.172L488.686 285.858C487.905 285.077 486.639 285.077 485.858 285.858C485.077 286.639 485.077 287.905 485.858 288.686L498.586 301.414ZM348 250V272H352V250H348ZM348 272V300H352V272H348ZM350 270H200V274H350V270ZM198 272V300H202V272H198ZM350 274H500V270H350V274ZM502 300V272H498V300H502Z" fill="black"/>
</svg>
