<svg width="550" height="400" viewBox="0 0 550 400" fill="none" xmlns="http://www.w3.org/2000/svg">
<rect x="150.5" y="0.5" width="99" height="99" fill="#D1D5D9" stroke="#A8ABB0"/>
<path d="M206.877 36.936L197.301 63.36H191.217L200.793 36.936H206.877Z" fill="black"/>
<rect x="150.5" y="150.5" width="99" height="99" fill="#D1D5D9" stroke="#A8ABB0"/>
<path d="M199.107 187.296C202.827 187.296 205.479 187.848 207.063 188.952C208.647 190.056 209.439 191.64 209.439 193.704C209.439 194.832 209.235 195.792 208.827 196.584C208.419 197.352 207.903 197.964 207.279 198.42C206.679 198.876 206.055 199.188 205.407 199.356V199.536C206.103 199.704 206.799 199.992 207.495 200.4C208.191 200.808 208.767 201.42 209.223 202.236C209.703 203.028 209.943 204.108 209.943 205.476C209.943 207.804 209.067 209.64 207.315 210.984C205.563 212.328 203.175 213 200.151 213H190.143V187.296H199.107ZM199.179 197.16C200.331 197.16 201.135 196.92 201.591 196.44C202.071 195.96 202.311 195.384 202.311 194.712C202.311 193.272 201.219 192.552 199.035 192.552H197.091V197.16H199.179ZM197.091 202.236V207.636H199.539C200.739 207.636 201.579 207.384 202.059 206.88C202.539 206.352 202.779 205.692 202.779 204.9C202.779 204.204 202.539 203.592 202.059 203.064C201.579 202.512 200.691 202.236 199.395 202.236H197.091Z" fill="black"/>
<rect x="300.5" y="300.5" width="99" height="99" fill="#D1D5D9" stroke="#A8ABB0"/>
<path d="M347.761 363H334.369V359.04L337.573 357.816V342.444L334.369 341.256V337.296H347.761V341.256L344.557 342.444V357.816L347.761 359.04V363ZM363.616 363H350.224V359.04L353.428 357.816V342.444L350.224 341.256V337.296H363.616V341.256L360.412 342.444V357.816L363.616 359.04V363Z" fill="black"/>
<rect x="300.5" y="150.5" width="99" height="99" fill="#D1D5D9" stroke="#A8ABB0"/>
<path d="M351.531 192.624C349.899 192.624 348.615 193.296 347.679 194.64C346.743 195.984 346.275 197.856 346.275 200.256C346.275 202.68 346.743 204.528 347.679 205.8C348.615 207.048 350.031 207.672 351.927 207.672C353.055 207.672 354.147 207.516 355.203 207.204C356.283 206.892 357.363 206.508 358.443 206.052V211.92C357.315 212.424 356.151 212.784 354.951 213C353.775 213.24 352.515 213.36 351.171 213.36C348.387 213.36 346.107 212.808 344.331 211.704C342.555 210.6 341.247 209.064 340.407 207.096C339.567 205.104 339.147 202.812 339.147 200.22C339.147 197.628 339.627 195.336 340.587 193.344C341.547 191.352 342.951 189.792 344.799 188.664C346.671 187.512 348.939 186.936 351.603 186.936C352.851 186.936 354.159 187.08 355.527 187.368C356.895 187.656 358.239 188.112 359.559 188.736L357.435 194.208C356.499 193.752 355.551 193.38 354.591 193.092C353.631 192.78 352.611 192.624 351.531 192.624Z" fill="black"/>
<rect x="450.5" y="300.5" width="99" height="99" fill="#D1D5D9" stroke="#A8ABB0"/>
<path d="M489.833 363H476.441V359.04L479.645 357.816V342.444L476.441 341.256V337.296H489.833V341.256L486.629 342.444V357.816L489.833 359.04V363ZM505.688 363H492.296V359.04L495.5 357.816V342.444L492.296 341.256V337.296H505.688V341.256L502.484 342.444V357.816L505.688 359.04V363ZM521.544 363H508.152V359.04L511.356 357.816V342.444L508.152 341.256V337.296H521.544V341.256L518.34 342.444V357.816L521.544 359.04V363Z" fill="black"/>
<rect x="0.5" y="150.5" width="99" height="99" fill="#D1D5D9" stroke="#A8ABB0"/>
<path d="M54.9795 213L53.7195 208.176H45.3675L44.0715 213H36.4395L44.8275 187.188H54.0795L62.5755 213H54.9795ZM51.1635 198.276C51.0435 197.82 50.8755 197.172 50.6595 196.332C50.4435 195.468 50.2275 194.58 50.0115 193.668C49.7955 192.756 49.6275 192.012 49.5075 191.436C49.4115 192.012 49.2555 192.732 49.0395 193.596C48.8475 194.46 48.6435 195.312 48.4275 196.152C48.2355 196.992 48.0675 197.7 47.9235 198.276L46.8075 202.488H52.2795L51.1635 198.276Z" fill="black"/>
<rect x="150.5" y="300.5" width="99" height="99" fill="#D1D5D9" stroke="#A8ABB0"/>
<path d="M205.688 363H192.296V359.04L195.5 357.816V342.444L192.296 341.256V337.296H205.688V341.256L202.484 342.444V357.816L205.688 359.04V363Z" fill="black"/>
<path d="M198.586 151.414C199.367 152.195 200.633 152.195 201.414 151.414L214.142 138.686C214.923 137.905 214.923 136.639 214.142 135.858C213.361 135.077 212.095 135.077 211.314 135.858L200 147.172L188.686 135.858C187.905 135.077 186.639 135.077 185.858 135.858C185.077 136.639 185.077 137.905 185.858 138.686L198.586 151.414ZM50 122V120C48.8954 120 48 120.895 48 122H50ZM48.5858 151.414C49.3668 152.195 50.6332 152.195 51.4142 151.414L64.1421 138.686C64.9232 137.905 64.9232 136.639 64.1421 135.858C63.3611 135.077 62.0948 135.077 61.3137 135.858L50 147.172L38.6863 135.858C37.9052 135.077 36.6389 135.077 35.8579 135.858C35.0768 136.639 35.0768 137.905 35.8579 138.686L48.5858 151.414ZM350 122H352C352 120.895 351.105 120 350 120V122ZM348.586 151.414C349.367 152.195 350.633 152.195 351.414 151.414L364.142 138.686C364.923 137.905 364.923 136.639 364.142 135.858C363.361 135.077 362.095 135.077 361.314 135.858L350 147.172L338.686 135.858C337.905 135.077 336.639 135.077 335.858 135.858C335.077 136.639 335.077 137.905 335.858 138.686L348.586 151.414ZM198 100V122H202V100H198ZM198 122V150H202V122H198ZM200 120H50V124H200V120ZM48 122V150H52V122H48ZM200 124L350 124V120L200 120V124ZM352 150V122H348V150H352Z" fill="black"/>
<path d="M348.586 301.414C349.367 302.195 350.633 302.195 351.414 301.414L364.142 288.686C364.923 287.905 364.923 286.639 364.142 285.858C363.361 285.077 362.095 285.077 361.314 285.858L350 297.172L338.686 285.858C337.905 285.077 336.639 285.077 335.858 285.858C335.077 286.639 335.077 287.905 335.858 288.686L348.586 301.414ZM200 272V270C198.895 270 198 270.895 198 272H200ZM198.586 301.414C199.367 302.195 200.633 302.195 201.414 301.414L214.142 288.686C214.923 287.905 214.923 286.639 214.142 285.858C213.361 285.077 212.095 285.077 211.314 285.858L200 297.172L188.686 285.858C187.905 285.077 186.639 285.077 185.858 285.858C185.077 286.639 185.077 287.905 185.858 288.686L198.586 301.414ZM500 272H502C502 270.895 501.105 270 500 270V272ZM498.586 301.414C499.367 302.195 500.633 302.195 501.414 301.414L514.142 288.686C514.923 287.905 514.923 286.639 514.142 285.858C513.361 285.077 512.095 285.077 511.314 285.858L500 297.172L488.686 285.858C487.905 285.077 486.639 285.077 485.858 285.858C485.077 286.639 485.077 287.905 485.858 288.686L498.586 301.414ZM348 250V272H352V250H348ZM348 272V300H352V272H348ZM350 270H200V274H350V270ZM198 272V300H202V272H198ZM350 274H500V270H350V274ZM502 300V272H498V300H502Z" fill="black"/>
</svg>
