<svg width="400" height="100" viewBox="0 0 400 100" fill="none" xmlns="http://www.w3.org/2000/svg">
<rect x="150.5" y="0.5" width="99" height="99" fill="#D1D5D9" stroke="#A8ABB0"/>
<path d="M199.107 37.296C202.827 37.296 205.479 37.848 207.063 38.952C208.647 40.056 209.439 41.64 209.439 43.704C209.439 44.832 209.235 45.792 208.827 46.584C208.419 47.352 207.903 47.964 207.279 48.42C206.679 48.876 206.055 49.188 205.407 49.356V49.536C206.103 49.704 206.799 49.992 207.495 50.4C208.191 50.808 208.767 51.42 209.223 52.236C209.703 53.028 209.943 54.108 209.943 55.476C209.943 57.804 209.067 59.64 207.315 60.984C205.563 62.328 203.175 63 200.151 63H190.143V37.296H199.107ZM199.179 47.16C200.331 47.16 201.135 46.92 201.591 46.44C202.071 45.96 202.311 45.384 202.311 44.712C202.311 43.272 201.219 42.552 199.035 42.552H197.091V47.16H199.179ZM197.091 52.236V57.636H199.539C200.739 57.636 201.579 57.384 202.059 56.88C202.539 56.352 202.779 55.692 202.779 54.9C202.779 54.204 202.539 53.592 202.059 53.064C201.579 52.512 200.691 52.236 199.395 52.236H197.091Z" fill="black"/>
<rect x="300.5" y="0.5" width="99" height="99" fill="#D1D5D9" stroke="#A8ABB0"/>
<path d="M351.531 42.624C349.899 42.624 348.615 43.296 347.679 44.64C346.743 45.984 346.275 47.856 346.275 50.256C346.275 52.68 346.743 54.528 347.679 55.8C348.615 57.048 350.031 57.672 351.927 57.672C353.055 57.672 354.147 57.516 355.203 57.204C356.283 56.892 357.363 56.508 358.443 56.052V61.92C357.315 62.424 356.151 62.784 354.951 63C353.775 63.24 352.515 63.36 351.171 63.36C348.387 63.36 346.107 62.808 344.331 61.704C342.555 60.6 341.247 59.064 340.407 57.096C339.567 55.104 339.147 52.812 339.147 50.22C339.147 47.628 339.627 45.336 340.587 43.344C341.547 41.352 342.951 39.792 344.799 38.664C346.671 37.512 348.939 36.936 351.603 36.936C352.851 36.936 354.159 37.08 355.527 37.368C356.895 37.656 358.239 38.112 359.559 38.736L357.435 44.208C356.499 43.752 355.551 43.38 354.591 43.092C353.631 42.78 352.611 42.624 351.531 42.624Z" fill="black"/>
<rect x="0.5" y="0.5" width="99" height="99" fill="#D1D5D9" stroke="#A8ABB0"/>
<path d="M54.9795 63L53.7195 58.176H45.3675L44.0715 63H36.4395L44.8275 37.188H54.0795L62.5755 63H54.9795ZM51.1635 48.276C51.0435 47.82 50.8755 47.172 50.6595 46.332C50.4435 45.468 50.2275 44.58 50.0115 43.668C49.7955 42.756 49.6275 42.012 49.5075 41.436C49.4115 42.012 49.2555 42.732 49.0395 43.596C48.8475 44.46 48.6435 45.312 48.4275 46.152C48.2355 46.992 48.0675 47.7 47.9235 48.276L46.8075 52.488H52.2795L51.1635 48.276Z" fill="black"/>
<path d="M98.5858 48.5858C97.8047 49.3668 97.8047 50.6332 98.5858 51.4142L111.314 64.1421C112.095 64.9232 113.361 64.9232 114.142 64.1421C114.923 63.3611 114.923 62.0948 114.142 61.3137L102.828 50L114.142 38.6863C114.923 37.9052 114.923 36.6389 114.142 35.8579C113.361 35.0768 112.095 35.0768 111.314 35.8579L98.5858 48.5858ZM151.414 51.4142C152.195 50.6332 152.195 49.3668 151.414 48.5858L138.686 35.8579C137.905 35.0768 136.639 35.0768 135.858 35.8579C135.077 36.6389 135.077 37.9052 135.858 38.6863L147.172 50L135.858 61.3137C135.077 62.0948 135.077 63.3611 135.858 64.1421C136.639 64.9232 137.905 64.9232 138.686 64.1421L151.414 51.4142ZM100 52H150V48H100V52Z" fill="black"/>
<path d="M248.586 48.5858C247.805 49.3668 247.805 50.6332 248.586 51.4142L261.314 64.1421C262.095 64.9232 263.361 64.9232 264.142 64.1421C264.923 63.3611 264.923 62.0948 264.142 61.3137L252.828 50L264.142 38.6863C264.923 37.9052 264.923 36.6389 264.142 35.8579C263.361 35.0768 262.095 35.0768 261.314 35.8579L248.586 48.5858ZM301.414 51.4142C302.195 50.6332 302.195 49.3668 301.414 48.5858L288.686 35.8579C287.905 35.0768 286.639 35.0768 285.858 35.8579C285.077 36.6389 285.077 37.9052 285.858 38.6863L297.172 50L285.858 61.3137C285.077 62.0948 285.077 63.3611 285.858 64.1421C286.639 64.9232 287.905 64.9232 288.686 64.1421L301.414 51.4142ZM250 52H300V48H250V52Z" fill="black"/>
</svg>
