<?xml version="1.0" encoding="UTF-8" standalone="no"?>
<svg
   id="svg8"
   version="1.1"
   viewBox="0 0 174.62499 132.58485"
   height="132.58485mm"
   width="174.625mm"
   xmlns:xlink="http://www.w3.org/1999/xlink"
   xmlns="http://www.w3.org/2000/svg"
   xmlns:svg="http://www.w3.org/2000/svg"
   xmlns:rdf="http://www.w3.org/1999/02/22-rdf-syntax-ns#"
   xmlns:cc="http://creativecommons.org/ns#"
   xmlns:dc="http://purl.org/dc/elements/1.1/">
  <defs
     id="defs2">
    <linearGradient
       gradientTransform="matrix(0,0.24785715,-0.27205841,0,792.42641,477.58273)"
       id="linearGradient1345"
       y2="-883.34998"
       gradientUnits="userSpaceOnUse"
       x2="431.42999"
       y1="-883.34998"
       x1="-168.57001">
      <stop
         id="stop1323"
         style="stop-color:#adadad"
         offset="0" />
      <stop
         id="stop1325"
         style="stop-color:#a9aaaf;stop-opacity:1"
         offset="0.31446967" />
      <stop
         id="stop1327"
         style="stop-color:#b4b5b9;stop-opacity:1"
         offset="0.40703741" />
      <stop
         offset="0.46817279"
         style="stop-color:#cccdcf;stop-opacity:1"
         id="stop1329" />
      <stop
         id="stop1331"
         style="stop-color:#dddee0;stop-opacity:1"
         offset="0.50269854" />
      <stop
         id="stop1333"
         style="stop-color:#c7c8ca;stop-opacity:1"
         offset="0.56680417" />
      <stop
         id="stop1335"
         style="stop-color:#9d9ea0;stop-opacity:1"
         offset="0.59733409" />
      <stop
         offset="0.70442498"
         style="stop-color:#6a6b70;stop-opacity:1"
         id="stop1337" />
      <stop
         id="stop1339"
         style="stop-color:#bcbdc2;stop-opacity:1"
         offset="0.7638911" />
      <stop
         offset="0.93328285"
         style="stop-color:#ecedef;stop-opacity:1"
         id="stop1341" />
      <stop
         id="stop1343"
         style="stop-color:#adadad"
         offset="1" />
    </linearGradient>
    <linearGradient
       gradientTransform="matrix(0,0.06557887,-0.07198212,0,209.66301,126.36054)"
       id="linearGradient3928-7-4"
       y2="-883.34998"
       gradientUnits="userSpaceOnUse"
       x2="431.42999"
       y1="-883.34998"
       x1="-168.57001">
      <stop
         id="stop4239-0-5"
         style="stop-color:#adadad"
         offset="0" />
      <stop
         id="stop4251-9-0"
         style="stop-color:#a9aaaf;stop-opacity:1"
         offset="0.31446967" />
      <stop
         id="stop4253-3-3"
         style="stop-color:#b4b5b9;stop-opacity:1"
         offset="0.40703741" />
      <stop
         offset="0.46817279"
         style="stop-color:#cccdcf;stop-opacity:1"
         id="stop1150-6" />
      <stop
         id="stop4255-6-1"
         style="stop-color:#dddee0;stop-opacity:1"
         offset="0.50269854" />
      <stop
         id="stop4257-0-0"
         style="stop-color:#c7c8ca;stop-opacity:1"
         offset="0.56680417" />
      <stop
         id="stop4249-6-6"
         style="stop-color:#9d9ea0;stop-opacity:1"
         offset="0.59733409" />
      <stop
         offset="0.70442498"
         style="stop-color:#6a6b70;stop-opacity:1"
         id="stop1146-3" />
      <stop
         id="stop1148-2"
         style="stop-color:#bcbdc2;stop-opacity:1"
         offset="0.7638911" />
      <stop
         offset="0.8585251"
         style="stop-color:#ecedef;stop-opacity:1"
         id="stop1144-0" />
      <stop
         id="stop4241-2-6"
         style="stop-color:#adadad"
         offset="1" />
    </linearGradient>
    <linearGradient
       y2="-883.34998"
       x2="431.42999"
       y1="-883.34998"
       x1="-168.57001"
       gradientTransform="matrix(0,0.24785715,-0.27205841,0,792.42641,477.58273)"
       gradientUnits="userSpaceOnUse"
       id="linearGradient1321"
       xlink:href="#linearGradient1345" />
    <filter
       style="color-interpolation-filters:sRGB"
       id="filter18"
       x="-0.088484727"
       y="-0.18147846"
       width="1.1769695"
       height="1.4889836">
      <feFlood
         result="flood"
         in="SourceGraphic"
         flood-opacity="0.498039"
         flood-color="rgb(0,0,0)"
         id="feFlood17" />
      <feGaussianBlur
         result="blur"
         in="SourceGraphic"
         stdDeviation="3.000000"
         id="feGaussianBlur17" />
      <feOffset
         result="offset"
         in="blur"
         dx="0.000000"
         dy="5.000000"
         id="feOffset17" />
      <feComposite
         result="comp1"
         operator="in"
         in="flood"
         in2="offset"
         id="feComposite17" />
      <feComposite
         result="comp2"
         operator="over"
         in="SourceGraphic"
         in2="comp1"
         id="feComposite18" />
    </filter>
  </defs>
  <metadata
     id="metadata5">
    <rdf:RDF>
      <cc:Work
         rdf:about="">
        <dc:format>image/svg+xml</dc:format>
        <dc:type
           rdf:resource="http://purl.org/dc/dcmitype/StillImage" />
        <dc:title />
      </cc:Work>
    </rdf:RDF>
  </metadata>
  <g
     id="layer1"
     transform="translate(-17.628231,-8.2508751)">
    <g
       transform="matrix(0.61860379,0,0,0.61860379,-74.097839,37.453184)"
       id="g1349"
       style="filter:url(#filter18)">
      <path
         d="m 316.6064,115.24825 c 0,0 -0.13419,20.15724 3.95067,28.84736 1.87226,3.98303 11.20728,5.6944 9.42159,8.74126 -1.12544,1.92029 -3.83542,2.08551 -3.83542,2.08551 l -72.80574,-0.14114 c 0,0 -4.20021,-0.31839 -4.46321,-1.91591 -0.75124,-4.56325 9.37469,-5.36913 9.60091,-9.27085 2.74655,-10.44633 3.97952,-17.66798 3.97952,-28.28856 z"
         style="color:#000000;fill:url(#linearGradient3928-7-4);stroke-width:0.0687057"
         id="rect2985-6-1" />
      <path
         id="rect2985-6"
         style="color:#000000;fill:url(#linearGradient1321);stroke-width:0.259675"
         d="m 1247.6191,573.00586 c -0.089,0.32672 -0.092,0.59882 -0.3613,1.01367 -0.4542,0.70086 -1.2079,1.49611 -2.4062,2.28125 -1.1984,0.78514 -2.8417,1.55948 -5.0743,2.21875 -2.2325,0.65927 -5.0546,1.20409 -8.6113,1.52735 -6.7508,0.61355 -15.2173,0.96907 -24.9883,1.1582 -9.7709,0.18913 -20.8462,0.21085 -32.8164,0.15625 -23.9403,-0.10921 -51.4584,-0.52539 -79.2695,-0.52539 -25.5459,0 -51.701,0.42493 -74.9648,0.58398 -11.632,0.0795 -22.54019,0.0929 -32.28911,-0.0469 -9.74892,-0.13979 -18.33721,-0.43109 -25.32812,-0.96289 -4.62969,-0.35219 -8.27028,-0.91858 -11.125,-1.59766 -2.85473,-0.67908 -4.92457,-1.47174 -6.41602,-2.2793 -1.49145,-0.80755 -2.40348,-1.62957 -2.94336,-2.36718 -0.14176,-0.19369 -0.0915,-0.30806 -0.18555,-0.48829 -0.30605,1.27886 -0.4547,2.61121 -0.21289,4.08008 0.99402,6.03787 16.86914,7.24219 16.86914,7.24219 l 275.16991,0.5332 c 0,0 10.2425,-0.62502 14.4961,-7.88281 0.9611,-1.63984 0.9978,-3.17003 0.457,-4.64453 z"
         transform="scale(0.26458333)" />
    </g>
    <path
       id="rect2"
       style="opacity:1;fill:#000000;fill-opacity:1;stroke-width:0.25178"
       d="M 20.113182,8.2508751 H 189.76818 a 2.4849493,2.5618068 0 0 1 2.48505,2.5618069 V 106.8922 a 2.4849493,2.5618068 0 0 1 -2.48505,2.5618 H 20.113182 a 2.4849493,2.5618068 0 0 1 -2.484951,-2.5618 V 10.812682 a 2.4849493,2.5618068 0 0 1 2.484951,-2.5618069 z" />
  </g>
</svg>
