<?xml version="1.0" encoding="UTF-8" standalone="no"?>
<!-- Generator: Gravit.io -->

<svg
   style="isolation:isolate"
   viewBox="0 0 436.87499 931.99997"
   width="582.50006"
   height="1242.6666"
   version="1.1"
   id="svg978"
   xml:space="preserve"
   xmlns="http://www.w3.org/2000/svg"
   xmlns:svg="http://www.w3.org/2000/svg"><defs
     id="defs628"><filter
       style="color-interpolation-filters:sRGB"
       id="filter23"
       x="-0.069032888"
       y="-0.031585221"
       width="1.1380658"
       height="1.1108462"><feFlood
         result="flood"
         in="SourceGraphic"
         flood-opacity="0.498039"
         flood-color="rgb(0,0,0)"
         id="feFlood22" /><feGaussianBlur
         result="blur"
         in="SourceGraphic"
         stdDeviation="10.000000"
         id="feGaussianBlur22" /><feOffset
         result="offset"
         in="blur"
         dx="0.000000"
         dy="40.000000"
         id="feOffset22" /><feComposite
         result="comp1"
         operator="in"
         in="flood"
         in2="offset"
         id="feComposite22" /><feComposite
         result="comp2"
         operator="over"
         in="SourceGraphic"
         in2="comp1"
         id="feComposite23" /></filter></defs><path
     d="m 408.437,164.78099 v 0 c 3.208,0 5.813,2.605 5.813,5.813 v 94.031 c 0,3.208 -2.605,5.813 -5.813,5.813 v 0 c -3.208,0 -5.812,-2.605 -5.812,-5.813 v -94.031 c 0,-3.208 2.604,-5.813 5.812,-5.813 z"
     style="isolation:isolate;fill:#b3b3b3;stroke:none;stroke-miterlimit:10"
     id="path630" /><path
     d="m 406.712,304.74999 h 3.45 c 2.256,0 4.088,1.832 4.088,4.088 v 44.074 c 0,2.256 -1.832,4.088 -4.088,4.088 h -3.45 c -2.256,0 -4.087,-1.832 -4.087,-4.088 v -44.074 c 0,-2.256 1.831,-4.088 4.087,-4.088 z"
     style="isolation:isolate;fill:#b3b3b3;stroke:none;stroke-miterlimit:10"
     id="path632" /><path
     d="M 78.263999,26.5 H 358.611 c 28.569,0 51.764,23.194998 51.764,51.763998 V 813.73599 c 0,28.569 -23.195,51.764 -51.764,51.764 H 78.263999 c -28.569,0 -51.764001,-23.195 -51.764001,-51.764 V 78.263998 C 26.499998,49.694998 49.694999,26.5 78.263999,26.5 Z"
     style="opacity:1;isolation:isolate;fill:#f2f2f2;stroke:#3c3c3c;stroke-width:5;stroke-miterlimit:10;stroke-dasharray:none;stroke-opacity:1;filter:url(#filter23)"
     id="path1373" /><circle
     vector-effect="non-scaling-stroke"
     cx="279.69519"
     cy="58.820309"
     r="8.5078125"
     fill="#3b3e43"
     id="circle638"
     style="isolation:isolate;fill:#4d4d4d" /><path
     d="m 198.836,53.968998 h 41.625 c 2.212,0 4.008,1.796 4.008,4.008 v 0 c 0,2.212 -1.796,4.007 -4.008,4.007 h -41.625 c -2.212,0 -4.008,-1.795 -4.008,-4.007 v 0 c 0,-2.212 1.796,-4.008 4.008,-4.008 z"
     style="isolation:isolate;fill:#4d4d4d;stroke:none;stroke-miterlimit:10"
     id="path640" /></svg>
