<?xml version="1.0" encoding="UTF-8" standalone="no"?>
<!-- Created with Inkscape (http://www.inkscape.org/) -->

<svg
   version="1.1"
   id="svg1"
   width="821.81323"
   height="208.87466"
   viewBox="0 0 821.8132 208.87467"
   xmlns="http://www.w3.org/2000/svg"
   xmlns:svg="http://www.w3.org/2000/svg">
  <defs
     id="defs1">
    <linearGradient
       x1="32.5"
       y1="32"
       x2="20"
       y2="44.5"
       gradientUnits="userSpaceOnUse"
       gradientTransform="matrix(2.508346,0,0,2.51107,112.8195,219.67335)"
       spreadMethod="pad"
       id="linearGradient99">
      <stop
         style="stop-opacity:1;stop-color:#fec458"
         offset="0"
         id="stop96" />
      <stop
         style="stop-opacity:1;stop-color:#fece67"
         offset="0.264423"
         id="stop97" />
      <stop
         style="stop-opacity:1;stop-color:#fece67"
         offset="0.769231"
         id="stop98" />
      <stop
         style="stop-opacity:1;stop-color:#fec357"
         offset="1"
         id="stop99" />
    </linearGradient>
    <clipPath
       clipPathUnits="userSpaceOnUse"
       id="clipPath99">
      <path
         d="M 2.5000001e-5,0 H 842.00005 V 596.00001 H 2.5000001e-5 Z"
         id="path99" />
    </clipPath>
    <mask
       maskUnits="userSpaceOnUse"
       x="0"
       y="0"
       width="1"
       height="1"
       id="mask99">
      <path
         id="path100"
         d="M 0,0 H 842 V 596 H 0 Z"
         style="fill:url(#linearGradient101);fill-opacity:1;fill-rule:nonzero;stroke:none"
         transform="matrix(1.3333333,0,0,1.3333333,2285.3333,0)"
         clip-path="url(#clipPath101)" />
    </mask>
    <linearGradient
       x1="34.500198"
       y1="29.302299"
       x2="5.9218798"
       y2="51.817001"
       gradientUnits="userSpaceOnUse"
       gradientTransform="matrix(2.508346,0,0,-2.51107,112.8195,376.32665)"
       spreadMethod="pad"
       id="linearGradient101">
      <stop
         style="stop-opacity:0.29999237;stop-color:#ffffff"
         offset="0"
         id="stop100" />
      <stop
         style="stop-opacity:0.29999237;stop-color:#ffffff"
         offset="1"
         id="stop101" />
    </linearGradient>
    <clipPath
       clipPathUnits="userSpaceOnUse"
       id="clipPath101">
      <path
         d="m 112.00003,219.00001 h 122 v 122 h -122 z"
         id="path101" />
    </clipPath>
    <linearGradient
       x1="34.500198"
       y1="29.302299"
       x2="5.9218798"
       y2="51.817001"
       gradientUnits="userSpaceOnUse"
       gradientTransform="matrix(2.5110705,0,0,-2.51107,112.94204,376.32665)"
       spreadMethod="pad"
       id="linearGradient103">
      <stop
         style="stop-opacity:1;stop-color:#000000"
         offset="0"
         id="stop102" />
      <stop
         style="stop-opacity:1;stop-color:#666666"
         offset="1"
         id="stop103" />
    </linearGradient>
    <clipPath
       clipPathUnits="userSpaceOnUse"
       id="clipPath103">
      <path
         d="m 112.12167,219.00001 h 122.13251 v 122 H 112.12167 Z"
         id="path103" />
    </clipPath>
    <clipPath
       clipPathUnits="userSpaceOnUse"
       id="clipPath104">
      <path
         d="M 2285.3333,0 H 3408 V 794.66667 H 2285.3333 Z"
         id="path104" />
    </clipPath>
    <linearGradient
       x1="10.1643"
       y1="10"
       x2="0.16431899"
       y2="20"
       gradientUnits="userSpaceOnUse"
       gradientTransform="matrix(2.508346,0,0,2.51107,112.8195,219.67335)"
       spreadMethod="pad"
       id="linearGradient106">
      <stop
         style="stop-opacity:1;stop-color:#017fe0"
         offset="0"
         id="stop104" />
      <stop
         style="stop-opacity:1;stop-color:#0196e6"
         offset="0.485577"
         id="stop105" />
      <stop
         style="stop-opacity:1;stop-color:#008be4"
         offset="1"
         id="stop106" />
    </linearGradient>
    <clipPath
       clipPathUnits="userSpaceOnUse"
       id="clipPath106">
      <path
         d="M 2.5000001e-5,0 H 842.00005 V 596.00001 H 2.5000001e-5 Z"
         id="path106" />
    </clipPath>
    <mask
       maskUnits="userSpaceOnUse"
       x="0"
       y="0"
       width="1"
       height="1"
       id="mask106">
      <path
         id="path107"
         d="M 0,0 H 842 V 596 H 0 Z"
         style="fill:url(#linearGradient108);fill-opacity:1;fill-rule:nonzero;stroke:none"
         transform="matrix(1.3333333,0,0,1.3333333,2285.3333,0)"
         clip-path="url(#clipPath108)" />
    </mask>
    <linearGradient
       x1="9.3771496"
       y1="2.1228499"
       x2="4.1571202"
       y2="7.3428798"
       gradientUnits="userSpaceOnUse"
       gradientTransform="matrix(2.508346,0,0,-2.51107,112.8195,376.32665)"
       spreadMethod="pad"
       id="linearGradient108">
      <stop
         style="stop-opacity:0.50000763;stop-color:#ffffff"
         offset="0"
         id="stop107" />
      <stop
         style="stop-opacity:0;stop-color:#ffffff"
         offset="1"
         id="stop108" />
    </linearGradient>
    <clipPath
       clipPathUnits="userSpaceOnUse"
       id="clipPath108">
      <path
         d="m 112.00003,219.00001 h 59 v 89 h -59 z"
         id="path108" />
    </clipPath>
    <linearGradient
       x1="9.3771496"
       y1="2.1228499"
       x2="4.1571202"
       y2="7.3428798"
       gradientUnits="userSpaceOnUse"
       gradientTransform="matrix(2.5110705,0,0,-2.51107,112.94204,376.32665)"
       spreadMethod="pad"
       id="linearGradient110">
      <stop
         style="stop-opacity:1;stop-color:#000000"
         offset="0"
         id="stop109" />
      <stop
         style="stop-opacity:1;stop-color:#666666"
         offset="1"
         id="stop110" />
    </linearGradient>
    <clipPath
       clipPathUnits="userSpaceOnUse"
       id="clipPath110">
      <path
         d="m 112.12167,219.00001 h 59.06409 v 89 h -59.06409 z"
         id="path110" />
    </clipPath>
    <clipPath
       clipPathUnits="userSpaceOnUse"
       id="clipPath111">
      <path
         d="M 2285.3333,0 H 3408 V 794.66667 H 2285.3333 Z"
         id="path111" />
    </clipPath>
    <linearGradient
       x1="18"
       y1="6"
       x2="32.5"
       y2="20.5"
       gradientUnits="userSpaceOnUse"
       gradientTransform="matrix(2.508346,0,0,2.51107,112.8195,219.67335)"
       spreadMethod="pad"
       id="linearGradient115">
      <stop
         style="stop-opacity:1;stop-color:#a2d6ec"
         offset="0"
         id="stop111" />
      <stop
         style="stop-opacity:1;stop-color:#b0dcef"
         offset="0.170222"
         id="stop112" />
      <stop
         style="stop-opacity:1;stop-color:#b0dcef"
         offset="0.710018"
         id="stop113" />
      <stop
         style="stop-opacity:1;stop-color:#8ecde8"
         offset="0.856213"
         id="stop114" />
      <stop
         style="stop-opacity:1;stop-color:#8ecde8"
         offset="1"
         id="stop115" />
    </linearGradient>
    <clipPath
       clipPathUnits="userSpaceOnUse"
       id="clipPath115">
      <path
         d="M 2.5000001e-5,0 H 842.00005 V 596.00001 H 2.5000001e-5 Z"
         id="path115" />
    </clipPath>
    <mask
       maskUnits="userSpaceOnUse"
       x="0"
       y="0"
       width="1"
       height="1"
       id="mask115">
      <path
         id="path116"
         d="M 0,0 H 842 V 596 H 0 Z"
         style="fill:url(#linearGradient117);fill-opacity:1;fill-rule:nonzero;stroke:none"
         transform="matrix(1.3333333,0,0,1.3333333,2285.3333,0)"
         clip-path="url(#clipPath117)" />
    </mask>
    <linearGradient
       x1="23.601101"
       y1="-0.398855"
       x2="36.3876"
       y2="12.3876"
       gradientUnits="userSpaceOnUse"
       gradientTransform="matrix(2.508346,0,0,-2.51107,112.8195,376.32665)"
       spreadMethod="pad"
       id="linearGradient117">
      <stop
         style="stop-opacity:0;stop-color:#ffffff"
         offset="0"
         id="stop116" />
      <stop
         style="stop-opacity:0.09999237;stop-color:#ffffff"
         offset="1"
         id="stop117" />
    </linearGradient>
    <clipPath
       clipPathUnits="userSpaceOnUse"
       id="clipPath117">
      <path
         d="m 112.00003,219.00001 h 122 v 122 h -122 z"
         id="path117" />
    </clipPath>
    <linearGradient
       x1="23.601101"
       y1="-0.398855"
       x2="36.3876"
       y2="12.3876"
       gradientUnits="userSpaceOnUse"
       gradientTransform="matrix(2.5110705,0,0,-2.51107,112.94204,376.32665)"
       spreadMethod="pad"
       id="linearGradient119">
      <stop
         style="stop-opacity:1;stop-color:#666666"
         offset="0"
         id="stop118" />
      <stop
         style="stop-opacity:1;stop-color:#8ccbe8"
         offset="1"
         id="stop119" />
    </linearGradient>
    <clipPath
       clipPathUnits="userSpaceOnUse"
       id="clipPath119">
      <path
         d="m 112.12167,219.00001 h 122.13251 v 122 H 112.12167 Z"
         id="path119" />
    </clipPath>
    <clipPath
       clipPathUnits="userSpaceOnUse"
       id="clipPath120">
      <path
         d="M 2285.3333,0 H 3408 V 794.66667 H 2285.3333 Z"
         id="path120" />
    </clipPath>
    <linearGradient
       x1="18"
       y1="30.5"
       x2="15"
       y2="27.5"
       gradientUnits="userSpaceOnUse"
       gradientTransform="matrix(2.508346,0,0,2.51107,112.8195,219.67335)"
       spreadMethod="pad"
       id="linearGradient123">
      <stop
         style="stop-opacity:1;stop-color:#d49120"
         offset="0"
         id="stop122" />
      <stop
         style="stop-opacity:1;stop-color:#6e4b11"
         offset="1"
         id="stop123" />
    </linearGradient>
    <clipPath
       clipPathUnits="userSpaceOnUse"
       id="clipPath123">
      <path
         d="M 2.5000001e-5,0 H 842.00005 V 596.00001 H 2.5000001e-5 Z"
         id="path123" />
    </clipPath>
    <linearGradient
       x1="2.49722"
       y1="18.5"
       x2="12.5"
       y2="28.5028"
       gradientUnits="userSpaceOnUse"
       gradientTransform="matrix(2.508346,0,0,2.51107,112.8195,219.67335)"
       spreadMethod="pad"
       id="linearGradient127">
      <stop
         style="stop-opacity:1;stop-color:#0079e1"
         offset="0"
         id="stop126" />
      <stop
         style="stop-opacity:1;stop-color:#00427b"
         offset="1"
         id="stop127" />
    </linearGradient>
    <linearGradient
       x1="4.3634501"
       y1="19.5"
       x2="20.3634"
       y2="35.5"
       gradientUnits="userSpaceOnUse"
       gradientTransform="matrix(2.508346,0,0,2.51107,112.8195,219.67335)"
       spreadMethod="pad"
       id="linearGradient132">
      <stop
         style="stop-opacity:1;stop-color:#01a2e7"
         offset="0"
         id="stop128" />
      <stop
         style="stop-opacity:1;stop-color:#02b3ef"
         offset="0.3125"
         id="stop129" />
      <stop
         style="stop-opacity:1;stop-color:#02b3ef"
         offset="0.605769"
         id="stop130" />
      <stop
         style="stop-opacity:1;stop-color:#0f7dcd"
         offset="0.9"
         id="stop131" />
      <stop
         style="stop-opacity:1;stop-color:#0f7dcd"
         offset="1"
         id="stop132" />
    </linearGradient>
    <linearGradient
       x1="32"
       y1="5"
       x2="29"
       y2="-4"
       gradientUnits="userSpaceOnUse"
       gradientTransform="matrix(2.508346,0,0,2.51107,112.8195,219.67335)"
       spreadMethod="pad"
       id="linearGradient134">
      <stop
         style="stop-opacity:1;stop-color:#59b9df"
         offset="0"
         id="stop133" />
      <stop
         style="stop-opacity:1;stop-color:#306479"
         offset="1"
         id="stop134" />
    </linearGradient>
    <clipPath
       clipPathUnits="userSpaceOnUse"
       id="clipPath134">
      <path
         d="M 2285.3333,0 H 3408 V 794.66667 H 2285.3333 Z"
         id="path134" />
    </clipPath>
    <linearGradient
       x1="27.186199"
       y1="47.941101"
       x2="25.499201"
       y2="46.337799"
       gradientUnits="userSpaceOnUse"
       gradientTransform="matrix(2.508346,0,0,2.51107,112.8195,219.67335)"
       spreadMethod="pad"
       id="linearGradient137">
      <stop
         style="stop-opacity:1;stop-color:#fec458"
         offset="0"
         id="stop135" />
      <stop
         style="stop-opacity:1;stop-color:#fec458"
         offset="0.0937579"
         id="stop136" />
      <stop
         style="stop-opacity:1;stop-color:#fec357"
         offset="1"
         id="stop137" />
    </linearGradient>
    <clipPath
       clipPathUnits="userSpaceOnUse"
       id="clipPath137">
      <path
         d="M 2.5000001e-5,0 H 842.00005 V 596.00001 H 2.5000001e-5 Z"
         id="path137" />
    </clipPath>
    <linearGradient
       x1="39"
       y1="0"
       x2="39"
       y2="9"
       gradientUnits="userSpaceOnUse"
       gradientTransform="matrix(2.508346,0,0,2.51107,112.8195,219.67335)"
       spreadMethod="pad"
       id="linearGradient140">
      <stop
         style="stop-opacity:1;stop-color:#a3e5f0"
         offset="0"
         id="stop138" />
      <stop
         style="stop-opacity:1;stop-color:#2dd5f0"
         offset="0.250471"
         id="stop139" />
      <stop
         style="stop-opacity:1;stop-color:#ace7f0"
         offset="1"
         id="stop140" />
    </linearGradient>
    <linearGradient
       x1="39"
       y1="39"
       x2="39"
       y2="48"
       gradientUnits="userSpaceOnUse"
       gradientTransform="matrix(2.508346,0,0,2.51107,112.8195,219.67335)"
       spreadMethod="pad"
       id="linearGradient143">
      <stop
         style="stop-opacity:1;stop-color:#f37704"
         offset="0"
         id="stop141" />
      <stop
         style="stop-opacity:1;stop-color:#fa8b02"
         offset="0.778523"
         id="stop142" />
      <stop
         style="stop-opacity:1;stop-color:#f57c04"
         offset="1"
         id="stop143" />
    </linearGradient>
    <clipPath
       clipPathUnits="userSpaceOnUse"
       id="clipPath159">
      <path
         d="m 2435.76,292.896 h 160.5307 V 453.604 H 2435.76 Z"
         id="path159" />
    </clipPath>
  </defs>
  <g
     id="g86"
     transform="translate(-2435.76,-292.89598)">
    <path
       id="path88"
       d="m 403.547,376.328 c -8.824,0 -16.699,-1.23 -23.621,-3.691 -6.813,-2.348 -12.844,-6.594 -18.094,-12.746 l 14.074,-16.602 c 4.129,4.695 8.43,7.883 12.899,9.559 4.465,1.679 9.437,2.515 14.91,2.515 4.019,0 7.758,-1.004 11.223,-3.019 3.46,-2.012 6.195,-4.864 8.207,-8.551 2.121,-3.578 3.183,-7.66 3.183,-12.242 v -3.856 c -2.344,4.024 -5.586,7.266 -9.715,9.727 -4.023,2.457 -9.551,3.687 -16.586,3.687 -7.929,0 -15.132,-2.011 -21.609,-6.035 -6.367,-4.027 -11.391,-9.394 -15.078,-16.101 -3.684,-6.821 -5.528,-14.422 -5.528,-22.809 0,-8.383 1.844,-15.984 5.528,-22.805 3.687,-6.82 8.711,-12.187 15.078,-16.101 6.477,-4.024 13.68,-6.035 21.609,-6.035 7.258,0 12.899,1.285 16.918,3.855 4.133,2.574 7.371,5.984 9.719,10.231 v -11.907 h 22.277 v 79.489 c 0,8.945 -1.953,16.66 -5.863,23.144 -3.797,6.485 -9.101,11.461 -15.914,14.926 -6.812,3.578 -14.684,5.367 -23.617,5.367 z m 0.168,-55.844 c 7.48,0 13.289,-2.351 17.422,-7.046 4.129,-4.696 6.195,-10.454 6.195,-17.274 0,-6.816 -2.066,-12.574 -6.195,-17.269 -4.133,-4.7 -9.942,-7.047 -17.422,-7.047 -7.371,0 -13.125,2.347 -17.258,7.047 -4.019,4.695 -6.027,10.453 -6.027,17.269 0,4.363 0.89,8.387 2.679,12.078 1.899,3.688 4.579,6.649 8.039,8.887 3.465,2.234 7.653,3.355 12.567,3.355 z"
       style="fill:#02b3ef;fill-opacity:1;fill-rule:nonzero;stroke:none"
       transform="matrix(1.3333333,0,0,1.3333333,2285.3333,0)" />
    <path
       id="path89"
       d="m 238.863,340.605 v -87.203 h 22.617 v 87.203 z m 31.563,0 v -87.203 h 21.945 v 16.602 c 1.449,-6.262 4.41,-11.012 8.879,-14.254 4.465,-3.355 10.496,-4.809 18.09,-4.359 v 21.297 h -3.184 c -6.476,0 -11.949,2.07 -16.414,6.207 -4.469,4.136 -6.703,9.835 -6.703,17.105 v 44.605 z"
       style="fill:#02b3ef;fill-opacity:1;fill-rule:nonzero;stroke:none"
       transform="matrix(1.3333333,0,0,1.3333333,2285.3333,0)" />
    <path
       id="path90"
       d="m 238.863,253.395 22.617,0.015 v 22.676 z"
       style="fill:#fece67;fill-opacity:1;fill-rule:nonzero;stroke:none"
       transform="matrix(1.3333333,0,0,1.3333333,2285.3333,0)" />
    <path
       id="path91"
       d="m 706.566,253.402 h 22.613 v 87.203 h -22.613 z"
       style="fill:#02b3ef;fill-opacity:1;fill-rule:nonzero;stroke:none"
       transform="matrix(1.3333333,0,0,1.3333333,2285.3333,0)" />
    <path
       id="path92"
       d="m 729.18,253.402 h -22.614 v 22.641 z"
       style="fill:#fece67;fill-opacity:1;fill-rule:nonzero;stroke:none"
       transform="matrix(1.3333333,0,0,1.3333333,2285.3333,0)" />
    <path
       id="path93"
       d="m 499.277,342.785 c -7.929,0 -15.191,-2.012 -21.777,-6.035 -6.48,-4.137 -11.672,-9.617 -15.582,-16.434 -3.797,-6.933 -5.695,-14.589 -5.695,-22.976 0,-6.262 1.117,-12.129 3.351,-17.61 2.235,-5.589 5.305,-10.453 9.215,-14.589 3.906,-4.246 8.43,-7.547 13.566,-9.895 5.25,-2.457 10.891,-3.687 16.922,-3.687 7.594,0 13.512,1.453 17.754,4.359 4.246,2.797 7.539,6.539 9.887,11.234 v -13.75 h 22.445 v 87.203 h -21.945 v -14.253 c -2.344,4.918 -5.695,8.886 -10.051,11.906 -4.242,3.019 -10.273,4.527 -18.09,4.527 z m 3.684,-20.457 c 5.023,0 9.324,-1.117 12.898,-3.355 3.688,-2.348 6.536,-5.422 8.543,-9.223 2.012,-3.801 3.016,-7.938 3.016,-12.41 0,-4.582 -1.004,-8.778 -3.016,-12.578 -2.007,-3.801 -4.855,-6.875 -8.543,-9.223 -3.574,-2.348 -7.875,-3.523 -12.898,-3.523 -4.801,0 -9.047,1.175 -12.731,3.523 -3.574,2.234 -6.367,5.254 -8.375,9.055 -2.011,3.801 -3.015,7.996 -3.015,12.578 0,4.359 1.004,8.496 3.015,12.41 2.008,3.801 4.801,6.875 8.375,9.223 3.684,2.347 7.93,3.523 12.731,3.523 z"
       style="fill:#02b3ef;fill-opacity:1;fill-rule:nonzero;stroke:none"
       transform="matrix(1.3333333,0,0,1.3333333,2285.3333,0)" />
    <path
       id="path94"
       d="m 328.203,253.402 h 22.613 v 87.203 h -22.613 z"
       style="fill:#02b3ef;fill-opacity:1;fill-rule:nonzero;stroke:none"
       transform="matrix(1.3333333,0,0,1.3333333,2285.3333,0)" />
    <path
       id="path95"
       d="M 350.816,276.043 V 253.402 H 328.203 Z"
       style="fill:#fece67;fill-opacity:1;fill-rule:nonzero;stroke:none"
       transform="matrix(1.3333333,0,0,1.3333333,2285.3333,0)" />
    <path
       id="path96"
       d="m 558.172,340.605 v -87.203 h 22.277 v 12.746 c 4.578,-9.839 13.457,-14.757 26.637,-14.757 6.141,0 11.668,1.453 16.582,4.359 4.914,2.797 8.824,6.82 11.727,12.074 2.906,-5.254 6.589,-9.277 11.058,-12.074 4.578,-2.906 10.719,-4.359 18.426,-4.359 6.254,0 11.894,1.453 16.918,4.359 5.027,2.906 8.992,7.043 11.894,12.41 2.907,5.367 4.356,11.738 4.356,19.117 v 53.328 h -22.613 v -47.793 c 0,-7.601 -1.622,-13.082 -4.86,-16.433 -3.238,-3.469 -7.426,-5.199 -12.562,-5.199 -5.25,0 -9.551,1.508 -12.899,4.527 -3.238,3.02 -4.859,8.719 -4.859,17.105 v 47.793 h -22.613 v -47.793 c 0,-7.601 -1.735,-13.082 -5.196,-16.433 -3.461,-3.469 -7.984,-5.199 -13.566,-5.199 -4.805,0 -9.047,1.73 -12.734,5.199 -3.575,3.351 -5.36,8.832 -5.36,16.433 v 47.793 z"
       style="fill:#02b3ef;fill-opacity:1;fill-rule:nonzero;stroke:none"
       transform="matrix(1.3333333,0,0,1.3333333,2285.3333,0)" />
    <g
       id="g158"
       clip-path="url(#clipPath159)">
      <path
         d="m 112.82,219.672 v 60.266 l 59.465,59.531 c 0.469,0.472 1.11,0.734 1.774,0.734 h 59.16 z"
         transform="matrix(1.3333333,0,0,1.3333333,2285.3333,0)"
         style="fill:url(#linearGradient99);stroke:none"
         opacity="1"
         clip-path="url(#clipPath99)"
         id="path143" />
      <g
         clip-path="url(#clipPath104)"
         id="g145">
        <g
           opacity="1"
           mask="url(#mask99)"
           clip-path="url(#clipPath104)"
           id="g144">
          <path
             d="m 174.248,339.891 h 58.465 L 113.256,220.434 v 59.375 l 59.439,59.441 c 0.411,0.41 0.97,0.641 1.553,0.641 z"
             style="fill:none;stroke:url(#linearGradient103);stroke-width:0.627767;stroke-linecap:butt;stroke-linejoin:miter;stroke-miterlimit:4;stroke-dasharray:none;stroke-opacity:1"
             transform="matrix(1.3318867,0,0,1.3333333,2285.3333,0)"
             clip-path="url(#clipPath103)"
             id="path144" />
        </g>
      </g>
      <path
         d="m 112.82,219.672 v 60.266 l 27.59,27.624 30.102,-30.132 z"
         transform="matrix(1.3333333,0,0,1.3333333,2285.3333,0)"
         style="fill:url(#linearGradient106);stroke:none"
         opacity="1"
         clip-path="url(#clipPath106)"
         id="path145" />
      <g
         clip-path="url(#clipPath111)"
         id="g147">
        <g
           opacity="1"
           mask="url(#mask106)"
           clip-path="url(#clipPath111)"
           id="g146">
          <path
             d="m 170.251,277.43 -56.995,-56.996 v 59.375 l 27.307,27.304 z"
             style="fill:none;stroke:url(#linearGradient110);stroke-width:0.627767;stroke-linecap:butt;stroke-linejoin:miter;stroke-miterlimit:4;stroke-dasharray:none;stroke-opacity:1"
             transform="matrix(1.3318867,0,0,1.3333333,2285.3333,0)"
             clip-path="url(#clipPath110)"
             id="path146" />
        </g>
      </g>
      <path
         d="m 112.82,340.203 v -60.265 l 59.485,-59.551 c 0.472,-0.469 1.058,-0.715 1.722,-0.715 h 59.192 z"
         transform="matrix(1.3333333,0,0,1.3333333,2285.3333,0)"
         style="fill:url(#linearGradient115);stroke:none"
         opacity="1"
         clip-path="url(#clipPath115)"
         id="path147" />
      <g
         clip-path="url(#clipPath120)"
         id="g149">
        <g
           opacity="1"
           mask="url(#mask115)"
           clip-path="url(#clipPath120)"
           id="g148">
          <path
             d="m 174.216,219.988 h 58.497 L 113.256,339.445 V 280.07 l 59.459,-59.461 c 0.41,-0.41 0.919,-0.621 1.501,-0.621 z"
             style="fill:none;stroke:url(#linearGradient119);stroke-width:0.627767;stroke-linecap:butt;stroke-linejoin:miter;stroke-miterlimit:4;stroke-dasharray:none;stroke-opacity:1"
             transform="matrix(1.3318867,0,0,1.3333333,2285.3333,0)"
             clip-path="url(#clipPath119)"
             id="path148" />
        </g>
      </g>
      <path
         d="m 174.273,281.195 -28.843,31.387 -5.02,-5.02 31.356,-28.878 z"
         transform="matrix(1.3333333,0,0,1.3333333,2285.3333,0)"
         style="fill:url(#linearGradient123);stroke:none"
         opacity="1"
         clip-path="url(#clipPath123)"
         id="path149" />
      <path
         d="m 143.508,249.961 31.062,28.492 -4.968,4.957 -28.579,-30.972 z"
         style="fill:#7ac3ec;fill-opacity:1;fill-rule:nonzero;stroke:none"
         transform="matrix(1.3333333,0,0,1.3333333,2285.3333,0)"
         id="path150" />
      <path
         d="m 112.82,282.449 v -10.043 l 28.844,-23.855 2.508,2.511 z"
         transform="matrix(1.3333333,0,0,1.3333333,2285.3333,0)"
         style="fill:url(#linearGradient127);stroke:none"
         opacity="1"
         clip-path="url(#clipPath123)"
         id="path151" />
      <path
         d="m 112.82,340.203 v -60.265 l 30.098,-30.133 30.102,30.133 z"
         transform="matrix(1.3333333,0,0,1.3333333,2285.3333,0)"
         style="fill:url(#linearGradient132);stroke:none"
         opacity="1"
         clip-path="url(#clipPath123)"
         id="path152" />
      <g
         opacity="0.5"
         clip-path="url(#clipPath134)"
         id="g153">
        <path
           d="m 176.066,224.898 c -2.64,-0.949 -3.015,-4.839 -3.015,-4.839 l 3.629,-0.09 33.968,9.75 v 12.554 c 0,0 -3.23,-6.074 -34.582,-17.375 z"
           transform="matrix(1.3333333,0,0,1.3333333,2285.3333,0)"
           style="fill:url(#linearGradient134);stroke:none"
           opacity="1"
           clip-path="url(#clipPath123)"
           id="path153" />
      </g>
      <path
         d="m 176.059,335.125 c -2.637,0.953 -3.012,4.844 -3.012,4.844 l 3.629,0.09 33.969,-9.75 v -12.555 c 0,0 -3.231,6.074 -34.586,17.371 z"
         transform="matrix(1.3333333,0,0,1.3333333,2285.3333,0)"
         style="fill:url(#linearGradient137);stroke:none"
         opacity="1"
         clip-path="url(#clipPath137)"
         id="path154" />
      <path
         d="m 233.219,219.672 -22.574,22.601 c 0,0 -16.305,-15.066 -30.102,-21.343 -2.711,-1.235 -6.406,-1.258 -6.406,-1.258 z"
         transform="matrix(1.3333333,0,0,1.3333333,2285.3333,0)"
         style="fill:url(#linearGradient140);stroke:none"
         opacity="1"
         clip-path="url(#clipPath137)"
         id="path155" />
      <path
         d="m 233.219,340.203 -22.574,-22.598 c 0,0 -16.305,15.067 -30.102,21.344 -0.938,0.43 -6.488,1.254 -6.488,1.254 z"
         transform="matrix(1.3333333,0,0,1.3333333,2285.3333,0)"
         style="fill:url(#linearGradient143);stroke:none"
         opacity="1"
         clip-path="url(#clipPath137)"
         id="path156" />
      <path
         d="m 143.073,310.07 30.111,29.637 c 0.688,0.691 7.399,-0.68 10.069,-2.012 10.043,-5.023 27.62,-20.09 27.62,-20.09"
         style="fill:none;stroke:#ffffff;stroke-width:0.627767;stroke-linecap:butt;stroke-linejoin:miter;stroke-miterlimit:4;stroke-dasharray:none;stroke-opacity:1"
         transform="matrix(1.3318867,0,0,1.3333333,2285.3333,0)"
         opacity="0.5"
         id="path157" />
      <path
         d="m 112.943,279.938 60.077,-59.641 c 1.028,-0.985 7.563,0.555 10.233,1.887 10.043,5.023 27.62,20.089 27.62,20.089"
         style="fill:none;stroke:#ffffff;stroke-width:0.627767;stroke-linecap:butt;stroke-linejoin:miter;stroke-miterlimit:4;stroke-dasharray:none;stroke-opacity:1"
         transform="matrix(1.3318867,0,0,1.3333333,2285.3333,0)"
         opacity="0.5"
         id="path158" />
    </g>
  </g>
</svg>
