<svg width="80" height="80" fill="none" xmlns="http://www.w3.org/2000/svg"><path d="M56.5 10h-33v60h33z" fill="#eff0f1"/><path d="M55 14.5H25V64h30z" fill="#31363b"/><path d="M44.5 65.5h-9V67h9z" fill="#4d4d4d" fill-opacity=".3"/><path d="M56.5 68.5h-33V70h33z" fill="#fff"/><path d="m23.06 29.94-2.121 2.121 10.5 10.5-1.94 1.94 12 12v-15L37 37 33.56 40.44zm-3.22 7.72L16.66 40.84l6.75 6.75-2.25 2.25 14.159 14.16h6.181v-4.682z" clip-rule="evenodd" fill="url(#a)" fill-rule="evenodd" opacity=".2" transform="translate(13.5)"/><g fill="#fff"><path d="m43 44.5-3-3 4.5-4.5-4.5-4.5 3-3 7.5 7.5z" clip-rule="evenodd" fill-rule="evenodd"/><path d="M36.25 50.5a2.25 2.25 0 1 0 0-4.5 2.25 2.25 0 0 0 0 4.5zM31.75 41.5a2.25 2.25 0 1 0 0-4.5 2.25 2.25 0 0 0 0 4.5zM35.5 32.5a1.5 1.5 0 1 0 0-3 1.5 1.5 0 0 0 0 3z"/></g><defs><linearGradient id="a" x1="23.369" x2="47.5" y1="26.369" y2="50.5" gradientUnits="userSpaceOnUse"><stop offset="0"/><stop stop-opacity="0" offset="1"/></linearGradient></defs><rect width="80" height="80" rx="1.951" ry="1.951"/></svg>