<?xml version="1.0" encoding="UTF-8"?>
<svg width="56px" height="56px" viewBox="0 0 56 56" version="1.1" xmlns="http://www.w3.org/2000/svg" xmlns:xlink="http://www.w3.org/1999/xlink">
    <!-- Generator: Sketch 46.2 (44496) - http://www.bohemiancoding.com/sketch -->
    <title>Icon</title>
    <desc>Created with Sketch.</desc>
    <defs>
        <linearGradient x1="115.50456%" y1="14.4823039%" x2="-34.5837312%" y2="118.738583%" id="linearGradient-1">
            <stop stop-color="#3023AE" offset="0%"></stop>
            <stop stop-color="#53A0FD" offset="47.5247532%"></stop>
            <stop stop-color="#B4EC51" offset="100%"></stop>
        </linearGradient>
        <linearGradient x1="50%" y1="0%" x2="50%" y2="100%" id="linearGradient-2">
            <stop stop-color="#FCEC3C" offset="0%"></stop>
            <stop stop-color="#F8D41C" offset="100%"></stop>
        </linearGradient>
        <linearGradient x1="50%" y1="0%" x2="50%" y2="100%" id="linearGradient-3">
            <stop stop-color="#873105" offset="0%"></stop>
            <stop stop-color="#5E4537" offset="100%"></stop>
        </linearGradient>
        <path d="M11.8558477,19.3798721 C12.4902965,18.8845633 12.9431992,18.6369089 13.2145559,18.6369089 C13.4859125,18.6369089 13.9479495,18.8845633 14.6006669,19.3798721 L14.6006669,30.0959215 L11.8558477,30.0959215 L11.8558477,19.3798721 Z" id="path-4"></path>
        <linearGradient x1="0%" y1="0%" x2="101.999998%" y2="100.999999%" id="linearGradient-5">
            <stop stop-color="#3023AE" offset="0%"></stop>
            <stop stop-color="#C86DD7" offset="100%"></stop>
        </linearGradient>
    </defs>
    <g id="Page-1" stroke="none" stroke-width="1" fill="none" fill-rule="evenodd">
        <g id="Icon">
            <g id="Group-3" transform="translate(3.000000, 5.000000)">
                <g id="Group-2">
                    <path d="M20.5,45 C31.8218374,45 41,38.2842712 41,30 C41,26.1600844 40.4812666,20.9326568 35.7847663,20.0038479 C33.974448,19.6458282 33.953193,22.543471 30.9220867,24.3503356 C28.7509117,25.6445889 25.4636316,26.4700345 23.7543786,26.4700345 C19.5813944,26.4700345 19.9459459,24.2164404 19.9459459,23.6291188 C19.9459459,22.6493329 20.8507848,18.8734836 29.3218579,17.222547 C32.2484478,16.6521807 23.7348362,15 20.5,15 C9.17816263,15 0,21.7157288 0,30 C0,38.2842712 9.17816263,45 20.5,45 Z" id="Oval" stroke="#E9E9E9" fill="url(#linearGradient-1)"></path>
                    <g id="Group" transform="translate(11.000000, 0.000000)">
                        <path d="M36.7802719,0.836214373 C34.1625935,2.55932945 14.191061,14.9323697 15.6850709,21.1618966 C17.6468524,29.3418761 31.1385275,11.2151932 37.6104639,1.95136228 C38.2504414,1.03530824 39.3979502,-0.886900706 36.7802719,0.836214373 Z" id="Path-2" stroke="#FFFFFF" stroke-width="0.2" fill="url(#linearGradient-2)"></path>
                        <g id="Rectangle" transform="translate(13.228257, 24.366415) rotate(-309.000000) translate(-13.228257, -24.366415) ">
                            <use fill="url(#linearGradient-3)" fill-rule="evenodd" xlink:href="#path-4"></use>
                            <path stroke="#FFFFFF" stroke-width="0.2" d="M11.9558477,19.4287949 L11.9558477,29.9959215 L14.5010388,29.9959215 L14.5402171,19.4595328 C13.9048817,18.9774141 13.4561825,18.7369089 13.2145559,18.7369089 C12.9785111,18.7369089 12.5526607,18.9670723 11.9558477,19.4288027 Z"></path>
                        </g>
                        <path d="M9.46272659,25.2054011 C8.11629593,24.0227697 6.82708716,24.0227697 5.59510027,25.2054011 C3.74711995,26.9793483 5.37282112,28.3075858 3.78203219,30.6585173 C2.98794337,31.8320536 1.73768462,32.7551721 0.0312559499,33.4278729 C3.61002294,34.0719789 6.24311891,34.0719789 7.93054385,33.4278729 C10.4616813,32.4617139 10.810559,31.0499434 11.1589446,29.1803292 C11.3912016,27.9339198 10.8257956,26.6089438 9.46272659,25.2054011 Z" id="Path-3" stroke="#FFFFFF" stroke-width="0.2" fill="url(#linearGradient-5)"></path>
                    </g>
                    <path d="M14.1481086,17 C4.08965665,26.6307398 22.1066134,19.8143387 13.6820879,17.400784" id="Path-4" fill="#50E3C2"></path>
                    <path d="M6.08660537,23.4771446 C-7.11411117,31.6022824 16.8306245,27.0958197 6.18651252,23 L6.08660537,23.4771446 Z" id="Path-5" fill="#D0021B"></path>
                    <path d="M5.06393404,31.2386843 C1.56127968,35.7204217 7.81714715,39.5005607 7.95454322,37.406921 C8.25572122,32.8175742 7.05124686,31.5504953 4.61026411,31" id="Path-6" fill="#B8E986"></path>
                    <path d="M17.1065976,36.833273 C6.24281444,42.9666315 42.2197816,33.8540201 16.5560536,36.4927777" id="Path-7" fill="#BD10E0"></path>
                    <path d="M31.0900176,32.6724255 C33.3121338,44.613067 40.9796822,19.5171714 31,33.2219475" id="Path-8" fill="#F8E71C"></path>
                    <path d="" id="Path-9" stroke="#979797"></path>
                </g>
            </g>
        </g>
    </g>
</svg>