<svg viewBox="0 0 56 42" xmlns="http://www.w3.org/2000/svg"><path d="M21 10.7c-2.3 0-3.8.8-4.7 2.3a16 16 0 0 0-1.2 7.2c0 3.3.4 5.7 1.2 7.1.8 1.5 2.3 2.2 4.6 2.2s3.8-.7 4.6-2.1c.8-1.4 1.2-3.8 1.2-7.1 0-3.4-.4-5.8-1.2-7.3-.9-1.5-2.4-2.3-4.6-2.3" fill="#41cd52" /><path d="M40.8 32.5c-2 0-3.4-.5-4.1-1.4-.8-1-1.1-2.7-1.1-5.3v-8.4h-2.7v-3.3h2.7V9h3.8v5h4.9v3.4h-5v7.9c0 1.4.2 2.4.4 2.9s.8.7 1.6.7l3-.1.1 3.1a20 20 0 0 1-3.6.5zm-11 3.7L26 38l-3-5.3a8 8 0 0 1-2.2.2c-3.6 0-6.2-1-7.7-3-1.4-2-2.1-5.2-2.1-9.5 0-4.4.7-7.6 2.2-9.7 1.4-2.1 4-3.2 7.6-3.2 3.7 0 6.2 1 7.7 3.1a17 17 0 0 1 2.2 9.7c0 3-.3 5.2-1 7a7.7 7.7 0 0 1-2.9 4l3 5zM50.5.2H7.8L0 8v34h48.1l7.8-7.9V.2Z" fill="#41cd52" /></svg>